<svg version="1.1" id="Layer_1" xmlns="http://www.w3.org/2000/svg" xmlns:xlink="http://www.w3.org/1999/xlink" x="0px" y="0px"
	 width="100%" viewBox="0 0 2048 2048" enable-background="new 0 0 2048 2048" xml:space="preserve">
<path fill="#000000" opacity="1.000000" stroke="none" 
	d="
M1204.000000,2049.000000 
	C802.666687,2049.000000 401.833344,2049.000000 1.000000,2049.000000 
	C1.000000,1366.333374 1.000000,683.666687 1.000000,1.000000 
	C683.666687,1.000000 1366.333374,1.000000 2049.000000,1.000000 
	C2049.000000,683.666687 2049.000000,1366.333374 2049.000000,2049.000000 
	C1767.500000,2049.000000 1486.000000,2049.000000 1204.000000,2049.000000 
M1758.983521,226.976242 
	C1758.983521,226.976242 1758.983521,226.910309 1758.218384,227.007645 
	C1756.843628,227.487198 1755.458862,227.940247 1754.095459,228.450226 
	C1728.982300,237.844559 1703.885010,247.281845 1678.756104,256.633942 
	C1658.187866,264.288788 1637.560425,271.784760 1616.999268,279.458527 
	C1594.313354,287.925323 1571.685059,296.546539 1549.009277,305.040710 
	C1528.019409,312.903412 1506.995728,320.675598 1485.994873,328.508820 
	C1456.918945,339.353943 1427.854980,350.231140 1398.777100,361.071167 
	C1377.911377,368.849792 1357.024292,376.570953 1336.159546,384.352448 
	C1311.489624,393.553192 1286.817139,402.747803 1262.182495,412.042206 
	C1255.709351,414.484436 1249.371704,417.285950 1242.042236,420.016022 
	C1098.700073,420.010590 955.357971,420.005463 812.015869,419.996368 
	C810.352600,419.996277 808.689331,419.945221 806.687012,419.267700 
	C791.309692,413.513580 775.944702,407.726318 760.552185,402.013092 
	C736.769287,393.185577 712.947021,384.463928 689.179199,375.596222 
	C659.782532,364.628418 630.427246,353.549713 601.048828,342.533020 
	C575.931274,333.114105 550.814270,323.693481 525.681824,314.314392 
	C507.692322,307.600952 489.667297,300.982849 471.676666,294.272552 
	C442.873291,283.529205 414.086182,272.742249 385.290527,261.978149 
	C360.908020,252.863724 336.539673,243.711090 312.129303,234.671844 
	C304.836060,231.971100 297.422516,229.595154 289.304047,226.894135 
	C285.056763,224.871826 283.207642,226.513443 281.836060,230.815598 
	C276.306061,248.161316 270.413177,265.391205 264.672729,282.670013 
	C244.208649,344.267212 223.730942,405.859955 203.362564,467.488831 
	C202.455658,470.232849 201.770401,473.476959 202.327576,476.214233 
	C211.156693,519.589111 220.162476,562.928284 229.217896,606.256775 
	C237.732101,646.995605 246.293228,687.724976 255.015503,728.419556 
	C255.892944,732.513367 254.536270,734.663269 251.425232,736.888550 
	C242.421036,743.329285 233.583801,750.004517 224.714325,756.632202 
	C221.050674,759.369812 220.940430,762.089294 224.541855,764.955139 
	C229.323669,768.760315 234.282120,772.342712 239.136353,776.057861 
	C249.454712,783.955078 259.754791,791.876160 270.323883,799.988220 
	C269.182953,800.991028 268.604919,801.551941 267.974304,802.045593 
	C258.078796,809.791321 248.119888,817.457458 238.297623,825.294800 
	C232.669922,829.785156 232.547226,831.369202 237.797577,836.225403 
	C247.533829,845.230957 257.513092,853.973083 267.323517,862.899292 
	C272.460938,867.573669 277.454773,872.405884 282.878326,877.510254 
	C273.994202,883.859070 265.413361,890.006409 256.815155,896.129456 
	C252.288956,899.352600 251.994232,900.953796 255.277206,904.786743 
	C261.308746,911.828857 267.342346,918.869263 273.351593,925.930359 
	C288.375397,943.583862 303.413696,961.225098 318.377075,978.929749 
	C321.124512,982.180542 323.546295,985.706604 326.015808,989.885315 
	C320.033203,1008.517639 314.051392,1027.150269 308.067871,1045.782349 
	C299.404297,1072.759888 290.716461,1099.729736 282.083588,1126.717163 
	C276.506683,1144.151123 271.029205,1161.616821 265.472015,1179.057251 
	C256.623596,1206.826782 247.789352,1234.600952 238.867188,1262.346802 
	C231.230316,1286.095825 223.440216,1309.795654 215.862213,1333.563232 
	C215.350143,1335.169434 216.053070,1337.162964 216.052216,1339.758789 
	C221.710312,1359.091553 227.366364,1378.424927 233.027039,1397.756958 
	C241.021790,1425.060303 249.054794,1452.352539 257.007050,1479.668335 
	C265.408905,1508.528442 273.697723,1537.421509 282.108612,1566.278931 
	C287.112518,1583.447144 292.299103,1600.562134 297.327515,1617.723267 
	C304.365997,1641.744629 311.394318,1665.769287 318.276031,1689.835693 
	C319.527832,1694.213379 322.085876,1695.964722 326.259369,1694.824341 
	C347.734894,1688.955688 369.161560,1682.908813 390.625000,1676.995728 
	C428.252655,1666.629883 465.906494,1656.358765 503.526703,1645.965942 
	C529.698547,1638.735962 555.816589,1631.311157 581.987976,1624.079468 
	C608.327148,1616.801514 634.691833,1609.615601 661.068176,1602.473267 
	C669.708191,1600.133545 678.419373,1598.056885 687.700195,1596.180054 
	C697.812744,1604.623657 707.901245,1613.096191 718.044861,1621.502197 
	C727.353210,1629.216187 736.452026,1637.218384 746.124695,1644.449463 
	C761.061768,1655.616455 776.352478,1666.314819 791.597290,1677.064453 
	C810.364807,1690.297852 829.250977,1703.362915 848.063660,1716.532593 
	C862.386719,1726.559326 876.551514,1736.819458 891.059204,1746.570312 
	C895.058716,1749.258301 898.930908,1752.191284 904.715881,1752.172974 
	C985.201965,1751.917480 1065.689087,1752.018921 1146.175903,1751.909058 
	C1148.591187,1751.905762 1151.385010,1751.108521 1153.360962,1749.749023 
	C1177.832886,1732.911621 1202.153198,1715.853882 1226.583618,1698.955688 
	C1238.010132,1691.051880 1249.794800,1683.653442 1261.055542,1675.525146 
	C1280.753784,1661.305908 1300.921021,1647.743408 1319.191162,1631.555908 
	C1333.259644,1619.091187 1348.295898,1607.718628 1363.732178,1596.003052 
	C1364.564209,1596.030029 1365.441528,1595.892578 1366.221802,1596.107788 
	C1400.506348,1605.563232 1434.777222,1615.068481 1469.060913,1624.527832 
	C1505.388794,1634.551147 1541.734375,1644.511108 1578.059814,1654.543335 
	C1600.133789,1660.639526 1622.168823,1666.876953 1644.249390,1672.948975 
	C1670.408081,1680.142578 1696.604980,1687.197021 1722.766235,1694.381470 
	C1728.199219,1695.873413 1730.309448,1694.830811 1731.850464,1689.445312 
	C1737.037476,1671.318359 1742.180664,1653.178711 1747.456665,1635.077637 
	C1755.008179,1609.170044 1762.623657,1583.281006 1770.281982,1557.404663 
	C1780.156372,1524.040649 1790.146240,1490.710815 1800.001343,1457.341064 
	C1811.649536,1417.899414 1823.207397,1378.431152 1834.950073,1338.114258 
	C1834.616577,1335.367188 1834.690674,1332.492310 1833.877197,1329.895630 
	C1830.779541,1320.007202 1827.324585,1310.231445 1824.131226,1300.372070 
	C1815.547607,1273.870850 1807.065430,1247.337036 1798.476074,1220.837769 
	C1790.038330,1194.805664 1781.486450,1168.810547 1773.043457,1142.780151 
	C1764.847656,1117.512329 1756.757202,1092.210083 1748.563843,1066.941284 
	C1740.029053,1040.619019 1731.426514,1014.318787 1723.511841,987.785339 
	C1735.142700,974.226379 1746.778564,960.671692 1758.403198,947.107300 
	C1770.250366,933.283264 1782.128906,919.485840 1793.904785,905.601318 
	C1798.296509,900.423157 1798.025269,899.714600 1792.447754,895.722656 
	C1784.060791,889.719971 1775.756836,883.601379 1767.190552,877.366821 
	C1771.341431,873.556946 1774.969116,870.167419 1778.662598,866.851196 
	C1784.458374,861.647034 1790.361694,856.561401 1796.102905,851.298157 
	C1802.228394,845.682678 1808.214722,839.915283 1814.269287,834.222229 
	C1816.543091,832.084106 1816.646851,829.880981 1814.280396,827.830566 
	C1811.531738,825.449158 1808.686035,823.175537 1805.821167,820.933350 
	C1797.044067,814.063965 1788.237671,807.232178 1779.259766,800.243530 
	C1780.504761,799.040344 1781.266357,798.143066 1782.180176,797.445190 
	C1796.118774,786.798767 1810.088623,776.193115 1824.025146,765.544128 
	C1829.216187,761.577637 1829.071899,759.826660 1823.830078,755.897888 
	C1813.910278,748.462891 1804.083496,740.903503 1794.406372,733.539124 
	C1794.697144,731.380920 1794.824585,729.566345 1795.196289,727.803284 
	C1803.401367,688.876038 1811.694214,649.967285 1819.844116,611.028564 
	C1828.907837,567.723267 1837.948975,524.412476 1846.687866,481.041199 
	C1847.619019,476.420258 1847.576416,471.010101 1846.110840,466.587280 
	C1820.025391,387.870605 1793.616577,309.261169 1767.439819,230.574570 
	C1766.205200,226.863373 1764.723755,225.181931 1760.278198,226.074875 
	C1759.825195,226.370209 1759.372314,226.665527 1758.983521,226.976242 
z"/>
<path fill="#F6851B" opacity="1.000000" stroke="none" 
	d="
M1722.853638,988.008911 
	C1731.426514,1014.318787 1740.029053,1040.619019 1748.563843,1066.941284 
	C1756.757202,1092.210083 1764.847656,1117.512329 1773.043457,1142.780151 
	C1781.486450,1168.810547 1790.038330,1194.805664 1798.476074,1220.837769 
	C1807.065430,1247.337036 1815.547607,1273.870850 1824.131226,1300.372070 
	C1827.324585,1310.231445 1830.779541,1320.007202 1833.877197,1329.895630 
	C1834.690674,1332.492310 1834.616577,1335.367188 1834.421143,1338.548096 
	C1759.846924,1338.989746 1685.801392,1338.988892 1611.755981,1339.009521 
	C1585.799072,1339.016724 1559.842041,1339.076294 1533.432495,1339.096436 
	C1526.832153,1339.362549 1520.686279,1339.838501 1514.536499,1339.895386 
	C1467.559082,1340.330444 1420.580688,1340.640625 1373.603394,1341.091797 
	C1361.287720,1341.210083 1348.964966,1341.494995 1336.670898,1342.169312 
	C1334.344849,1342.296753 1332.139526,1344.624634 1329.547241,1346.027832 
	C1327.653931,1347.042480 1325.973145,1347.813232 1324.548462,1348.915161 
	C1314.027710,1357.052368 1303.556885,1365.254150 1293.072632,1373.438721 
	C1255.067261,1403.108643 1217.048706,1432.761719 1179.067627,1462.462769 
	C1169.647827,1469.828979 1160.350342,1477.351440 1150.694824,1484.906494 
	C1149.642090,1485.411865 1148.891113,1485.812744 1148.034668,1485.858765 
	C1147.114014,1484.326660 1146.544312,1482.800171 1145.444946,1482.027344 
	C1136.332764,1475.622192 1127.122559,1469.356445 1117.244873,1462.569458 
	C1117.035034,1467.661743 1113.656250,1467.188721 1110.469727,1467.188110 
	C1053.161987,1467.177246 995.854309,1467.211914 938.546936,1467.072632 
	C936.040710,1467.066528 933.538269,1465.493042 929.755371,1464.219238 
	C921.906677,1469.614624 912.558716,1475.977783 903.309753,1482.481567 
	C902.208435,1483.255981 901.645508,1484.795898 900.549866,1485.863525 
	C899.519653,1485.438354 898.772583,1485.130615 897.829224,1484.561279 
	C896.583984,1483.230225 895.640991,1482.025024 894.470520,1481.110962 
	C869.548645,1461.647705 844.588867,1442.233032 819.662170,1422.776245 
	C796.047180,1404.343506 772.506897,1385.814819 748.840942,1367.447876 
	C739.392212,1360.114746 729.694885,1353.101685 719.909729,1345.645752 
	C717.263245,1344.227905 714.843872,1342.200317 712.368408,1342.129395 
	C692.068726,1341.547729 671.758301,1341.348999 651.451782,1340.996826 
	C635.642456,1340.722656 619.835205,1340.317017 604.025146,1340.108765 
	C574.722717,1339.722900 545.418945,1339.438843 515.640259,1339.090332 
	C511.998688,1339.047119 508.832550,1339.007935 505.666382,1339.007568 
	C409.174561,1338.994873 312.682709,1338.985840 216.190887,1338.976318 
	C216.053070,1337.162964 215.350143,1335.169434 215.862213,1333.563232 
	C223.440216,1309.795654 231.230316,1286.095825 238.867188,1262.346802 
	C247.789352,1234.600952 256.623596,1206.826782 265.472015,1179.057251 
	C271.029205,1161.616821 276.506683,1144.151123 282.083588,1126.717163 
	C290.716461,1099.729736 299.404297,1072.759888 308.067871,1045.782349 
	C314.051392,1027.150269 320.033203,1008.517639 326.347198,989.291138 
	C328.954712,987.001709 330.988220,984.483765 333.542175,983.730530 
	C408.918457,961.500671 484.346436,939.445923 559.766357,917.363953 
	C594.120483,907.305359 628.476929,897.254639 662.826477,887.180420 
	C666.485107,886.107361 669.966003,885.177979 669.914978,891.053711 
	C665.154663,898.041687 660.717468,904.850586 656.226135,911.623596 
	C632.069946,948.051758 607.872864,984.452820 583.761475,1020.910645 
	C579.646973,1027.132202 575.879700,1033.583374 571.682617,1040.146973 
	C571.297241,1042.221558 571.181213,1044.077637 571.120605,1046.294434 
	C572.049194,1048.629150 572.823242,1050.654297 573.810364,1052.569580 
	C589.436279,1082.888428 605.160034,1113.157104 620.718140,1143.510742 
	C638.710571,1178.613403 656.532043,1213.803589 674.486450,1248.925903 
	C686.303040,1272.041382 698.218384,1295.106445 710.115112,1318.180908 
	C710.596680,1319.114868 711.340881,1319.913452 712.687439,1321.779419 
	C712.833862,1318.987915 713.041626,1317.399170 712.980774,1315.820557 
	C712.366516,1299.886475 711.602478,1283.957397 711.092590,1268.020142 
	C710.598206,1252.566772 710.356506,1237.105347 709.992126,1221.647705 
	C709.941223,1219.487061 709.811218,1217.328491 709.739380,1215.168213 
	C709.496521,1207.863647 709.056458,1200.555420 709.173523,1193.256226 
	C709.202393,1191.453857 711.054077,1189.680542 712.424255,1187.995483 
	C715.866638,1189.052856 718.952637,1190.008545 722.391235,1191.085571 
	C729.396851,1193.186035 736.046326,1195.177368 742.703613,1197.141846 
	C776.150879,1207.011597 809.587036,1216.919189 843.054749,1226.719116 
	C857.512939,1230.952881 872.037598,1234.959839 886.789551,1239.282715 
	C888.375061,1239.697266 889.703186,1239.898682 891.280762,1240.318237 
	C894.953735,1242.163574 896.686035,1244.750000 897.271973,1248.626343 
	C898.390320,1256.025269 900.012756,1263.348267 901.437195,1270.700684 
	C909.984924,1314.819824 918.526001,1358.940063 927.096619,1403.054688 
	C928.336182,1409.435059 929.722534,1415.786987 931.040955,1422.152100 
	C931.362305,1422.100220 931.683716,1422.048340 932.005066,1421.996460 
	C932.005066,1420.681396 932.005066,1419.366333 932.005066,1418.051270 
	C932.002197,1338.091187 932.025940,1258.131104 931.946350,1178.171021 
	C931.939880,1171.701416 931.261414,1165.229858 930.830200,1158.763672 
	C929.570435,1139.871704 928.256714,1120.983398 927.006042,1102.090942 
	C926.281738,1091.150635 925.685303,1080.201416 924.887512,1069.266724 
	C924.804138,1068.124634 923.743652,1067.053833 923.161316,1065.545898 
	C923.441467,1062.111206 923.696838,1059.080322 923.961670,1055.603271 
	C923.964722,1054.157349 924.006226,1053.154663 923.944946,1052.158325 
	C922.630371,1030.763062 921.301758,1009.368713 919.981323,987.973938 
	C919.254456,976.196106 918.559387,964.416260 917.811035,952.639832 
	C916.557068,932.907532 915.222778,913.180298 914.017334,893.445129 
	C913.216797,880.338196 912.642578,867.217529 911.858887,854.109497 
	C910.619385,833.376648 909.269714,812.650452 908.004700,791.919189 
	C907.255554,779.642456 906.632629,767.357849 905.858704,755.082764 
	C904.593567,735.017395 903.251648,714.956848 901.944092,694.478394 
	C900.298828,688.705933 898.651672,683.349243 896.975708,677.607300 
	C896.184570,674.676636 895.550842,672.084290 894.640320,669.593079 
	C880.024292,629.604492 865.344666,589.639099 850.737610,549.647278 
	C835.901917,509.029510 821.080078,468.406403 806.463684,427.709686 
	C805.658875,425.468811 806.793945,422.531250 807.026062,419.917969 
	C808.689331,419.945221 810.352600,419.996277 812.015869,419.996368 
	C955.357971,420.005463 1098.700073,420.010590 1242.693115,420.287720 
	C1246.723999,424.891235 1243.881714,428.900940 1242.453247,432.784912 
	C1229.530029,467.921692 1216.462158,503.005219 1203.466309,538.115295 
	C1190.932495,571.976807 1178.401123,605.839355 1165.936523,639.726318 
	C1161.230225,652.520996 1156.713379,665.385315 1151.933838,678.521606 
	C1149.266357,684.246582 1146.545166,689.619629 1147.946777,696.253784 
	C1146.804932,709.664062 1145.802124,722.719421 1145.027588,735.788452 
	C1144.192383,749.877075 1143.644043,763.982666 1142.839600,778.073364 
	C1141.619141,799.449036 1140.240479,820.815613 1139.015991,842.191040 
	C1138.218140,856.115662 1137.644287,870.053223 1136.845703,883.977783 
	C1135.619751,905.353088 1134.255005,926.720398 1133.011230,948.094666 
	C1132.239624,961.354858 1131.609985,974.623230 1130.867798,987.885193 
	C1129.597046,1010.589661 1128.288086,1033.291992 1126.983398,1056.439697 
	C1126.969849,1059.256226 1126.968262,1061.628052 1126.766846,1064.350342 
	C1125.711304,1074.785522 1124.776123,1084.864502 1124.021240,1094.956909 
	C1123.178589,1106.222412 1122.536133,1117.502808 1121.740356,1128.772095 
	C1120.523560,1146.001587 1118.408936,1163.214722 1118.157959,1180.456421 
	C1117.396851,1232.734497 1117.291504,1285.022827 1117.044434,1337.307617 
	C1116.911377,1365.460327 1117.008667,1393.614258 1117.012573,1421.767578 
	C1117.012695,1422.869263 1117.119507,1423.970947 1117.176636,1425.072632 
	C1119.993774,1415.292480 1122.041016,1405.423340 1123.984131,1395.533936 
	C1133.642822,1346.373169 1143.312134,1297.214478 1152.843262,1248.029053 
	C1153.597656,1244.136230 1154.959473,1241.455078 1159.411377,1240.814453 
	C1160.959961,1240.197144 1162.212280,1239.634155 1163.894775,1239.098511 
	C1189.849121,1231.708740 1215.389038,1224.346069 1240.892944,1216.860229 
	C1270.205933,1208.256470 1299.487061,1199.543213 1329.159790,1190.845703 
	C1332.354248,1189.870728 1335.170898,1188.927734 1338.344238,1188.086182 
	C1339.794556,1190.039795 1341.708252,1191.846924 1341.812744,1193.753174 
	C1342.037720,1197.862427 1341.226440,1202.017578 1341.027954,1206.163086 
	C1340.328247,1220.770386 1339.705322,1235.381592 1339.059570,1249.991455 
	C1338.046753,1272.903931 1337.029785,1295.816406 1336.060303,1318.730713 
	C1336.018677,1319.717041 1336.436157,1320.722778 1336.843018,1322.714478 
	C1338.164185,1320.336304 1338.997070,1318.928223 1339.745483,1317.476562 
	C1351.115234,1295.424316 1362.474487,1273.366699 1373.835205,1251.309814 
	C1390.990723,1218.002441 1408.181885,1184.713501 1425.290283,1151.382080 
	C1440.879272,1121.010254 1456.388672,1090.597656 1471.906250,1060.189331 
	C1474.316162,1055.466919 1476.580933,1050.670654 1479.000244,1045.577026 
	C1478.741211,1043.473145 1478.394653,1041.700806 1477.953369,1039.596191 
	C1463.321411,1017.158752 1448.830200,995.022888 1434.234985,972.955627 
	C1415.961426,945.326721 1397.602417,917.754150 1379.272095,889.797363 
	C1380.254272,885.175476 1383.149292,886.249390 1385.939331,887.063171 
	C1403.031128,892.048645 1420.124146,897.030640 1437.212646,902.027954 
	C1530.001099,929.163269 1622.794067,956.284119 1715.548584,983.534851 
	C1718.193481,984.311890 1720.427856,986.486145 1722.853638,988.008911 
z"/>
<path fill="#763D16" opacity="1.000000" stroke="none" 
	d="
M1723.182739,987.897095 
	C1720.427856,986.486145 1718.193481,984.311890 1715.548584,983.534851 
	C1622.794067,956.284119 1530.001099,929.163269 1437.212646,902.027954 
	C1420.124146,897.030640 1403.031128,892.048645 1385.939331,887.063171 
	C1383.149292,886.249390 1380.254272,885.175476 1378.921143,889.692139 
	C1371.274658,883.893799 1363.918457,877.903137 1356.675781,871.778198 
	C1297.029419,821.336670 1237.415894,770.856506 1177.760742,720.425293 
	C1167.981689,712.158264 1158.048340,704.073730 1148.186279,695.904846 
	C1146.545166,689.619629 1149.266357,684.246582 1152.255005,678.397095 
	C1153.978271,677.109497 1155.224854,676.278381 1156.426636,675.386841 
	C1226.515015,623.390259 1296.609009,571.401428 1366.682373,519.384644 
	C1496.264160,423.193451 1625.835327,326.988129 1755.383911,230.752274 
	C1756.770142,229.722412 1757.791748,228.201843 1758.983521,226.910339 
	C1758.983521,226.910309 1758.983521,226.976242 1759.235352,227.035919 
	C1759.950562,226.775467 1760.414062,226.455338 1760.877563,226.135239 
	C1764.723755,225.181931 1766.205200,226.863373 1767.439819,230.574570 
	C1793.616577,309.261169 1820.025391,387.870605 1846.110840,466.587280 
	C1847.576416,471.010101 1847.619019,476.420258 1846.687866,481.041199 
	C1837.948975,524.412476 1828.907837,567.723267 1819.844116,611.028564 
	C1811.694214,649.967285 1803.401367,688.876038 1795.196289,727.803284 
	C1794.824585,729.566345 1794.697144,731.380920 1794.406372,733.539124 
	C1804.083496,740.903503 1813.910278,748.462891 1823.830078,755.897888 
	C1829.071899,759.826660 1829.216187,761.577637 1824.025146,765.544128 
	C1810.088623,776.193115 1796.118774,786.798767 1782.180176,797.445190 
	C1781.266357,798.143066 1780.504761,799.040344 1779.259766,800.243530 
	C1788.237671,807.232178 1797.044067,814.063965 1805.821167,820.933350 
	C1808.686035,823.175537 1811.531738,825.449158 1814.280396,827.830566 
	C1816.646851,829.880981 1816.543091,832.084106 1814.269287,834.222229 
	C1808.214722,839.915283 1802.228394,845.682678 1796.102905,851.298157 
	C1790.361694,856.561401 1784.458374,861.647034 1778.662598,866.851196 
	C1774.969116,870.167419 1771.341431,873.556946 1767.190552,877.366821 
	C1775.756836,883.601379 1784.060791,889.719971 1792.447754,895.722656 
	C1798.025269,899.714600 1798.296509,900.423157 1793.904785,905.601318 
	C1782.128906,919.485840 1770.250366,933.283264 1758.403198,947.107300 
	C1746.778564,960.671692 1735.142700,974.226379 1723.182739,987.897095 
z"/>
<path fill="#763D16" opacity="1.000000" stroke="none" 
	d="
M897.004517,677.992615 
	C898.651672,683.349243 900.298828,688.705933 901.667358,694.666748 
	C824.330200,760.466675 747.271667,825.662354 670.213135,890.858032 
	C669.966003,885.177979 666.485107,886.107361 662.826477,887.180420 
	C628.476929,897.254639 594.120483,907.305359 559.766357,917.363953 
	C484.346436,939.445923 408.918457,961.500671 333.542175,983.730530 
	C330.988220,984.483765 328.954712,987.001709 326.398499,988.901367 
	C323.546295,985.706604 321.124512,982.180542 318.377075,978.929749 
	C303.413696,961.225098 288.375397,943.583862 273.351593,925.930359 
	C267.342346,918.869263 261.308746,911.828857 255.277206,904.786743 
	C251.994232,900.953796 252.288956,899.352600 256.815155,896.129456 
	C265.413361,890.006409 273.994202,883.859070 282.878326,877.510254 
	C277.454773,872.405884 272.460938,867.573669 267.323517,862.899292 
	C257.513092,853.973083 247.533829,845.230957 237.797577,836.225403 
	C232.547226,831.369202 232.669922,829.785156 238.297623,825.294800 
	C248.119888,817.457458 258.078796,809.791321 267.974304,802.045593 
	C268.604919,801.551941 269.182953,800.991028 270.323883,799.988220 
	C259.754791,791.876160 249.454712,783.955078 239.136353,776.057861 
	C234.282120,772.342712 229.323669,768.760315 224.541855,764.955139 
	C220.940430,762.089294 221.050674,759.369812 224.714325,756.632202 
	C233.583801,750.004517 242.421036,743.329285 251.425232,736.888550 
	C254.536270,734.663269 255.892944,732.513367 255.015503,728.419556 
	C246.293228,687.724976 237.732101,646.995605 229.217896,606.256775 
	C220.162476,562.928284 211.156693,519.589111 202.327576,476.214233 
	C201.770401,473.476959 202.455658,470.232849 203.362564,467.488831 
	C223.730942,405.859955 244.208649,344.267212 264.672729,282.670013 
	C270.413177,265.391205 276.306061,248.161316 281.836060,230.815598 
	C283.207642,226.513443 285.056763,224.871826 289.791931,227.296341 
	C291.422058,228.660416 292.516846,229.686142 293.713409,230.574860 
	C328.617523,256.498993 363.532471,282.408508 398.444275,308.322235 
	C548.124207,419.424072 697.797974,530.534302 847.491821,641.617432 
	C863.937561,653.821350 880.497498,665.871277 897.004517,677.992615 
z"/>
<path fill="#E4761B" opacity="1.000000" stroke="none" 
	d="
M1533.885132,1339.112061 
	C1559.842041,1339.076294 1585.799072,1339.016724 1611.755981,1339.009521 
	C1685.801392,1338.988892 1759.846924,1338.989746 1834.348389,1338.978271 
	C1823.207397,1378.431152 1811.649536,1417.899414 1800.001343,1457.341064 
	C1790.146240,1490.710815 1780.156372,1524.040649 1770.281982,1557.404663 
	C1762.623657,1583.281006 1755.008179,1609.170044 1747.456665,1635.077637 
	C1742.180664,1653.178711 1737.037476,1671.318359 1731.850464,1689.445312 
	C1730.309448,1694.830811 1728.199219,1695.873413 1722.766235,1694.381470 
	C1696.604980,1687.197021 1670.408081,1680.142578 1644.249390,1672.948975 
	C1622.168823,1666.876953 1600.133789,1660.639526 1578.059814,1654.543335 
	C1541.734375,1644.511108 1505.388794,1634.551147 1469.060913,1624.527832 
	C1434.777222,1615.068481 1400.506348,1605.563232 1366.221802,1596.107788 
	C1365.441528,1595.892578 1364.564209,1596.030029 1363.444946,1595.636353 
	C1364.087280,1593.862793 1365.016724,1592.456055 1366.223022,1590.851196 
	C1367.509644,1589.337402 1368.599609,1588.075195 1369.517822,1586.698364 
	C1423.485229,1505.787964 1477.441162,1424.869995 1531.371948,1343.935181 
	C1532.371582,1342.435303 1533.054443,1340.724365 1533.885132,1339.112061 
z"/>
<path fill="#E4761B" opacity="1.000000" stroke="none" 
	d="
M216.121552,1339.367554 
	C312.682709,1338.985840 409.174561,1338.994873 505.666382,1339.007568 
	C508.832550,1339.007935 511.998688,1339.047119 515.700073,1339.417969 
	C517.152649,1341.343750 517.989380,1342.973633 518.998962,1344.488403 
	C572.754822,1425.145264 626.522278,1505.794189 680.313721,1586.427368 
	C681.408936,1588.068970 682.800598,1589.512817 684.158203,1591.351685 
	C685.207642,1593.056152 686.152832,1594.458008 687.098022,1595.859863 
	C678.419373,1598.056885 669.708191,1600.133545 661.068176,1602.473267 
	C634.691833,1609.615601 608.327148,1616.801514 581.987976,1624.079468 
	C555.816589,1631.311157 529.698547,1638.735962 503.526703,1645.965942 
	C465.906494,1656.358765 428.252655,1666.629883 390.625000,1676.995728 
	C369.161560,1682.908813 347.734894,1688.955688 326.259369,1694.824341 
	C322.085876,1695.964722 319.527832,1694.213379 318.276031,1689.835693 
	C311.394318,1665.769287 304.365997,1641.744629 297.327515,1617.723267 
	C292.299103,1600.562134 287.112518,1583.447144 282.108612,1566.278931 
	C273.697723,1537.421509 265.408905,1508.528442 257.007050,1479.668335 
	C249.054794,1452.352539 241.021790,1425.060303 233.027039,1397.756958 
	C227.366364,1378.424927 221.710312,1359.091553 216.121552,1339.367554 
z"/>
<path fill="#E4761B" opacity="1.000000" stroke="none" 
	d="
M896.975708,677.607300 
	C880.497498,665.871277 863.937561,653.821350 847.491821,641.617432 
	C697.797974,530.534302 548.124207,419.424072 398.444275,308.322235 
	C363.532471,282.408508 328.617523,256.498993 293.713409,230.574860 
	C292.516846,229.686142 291.422058,228.660416 290.171936,227.384460 
	C297.422516,229.595154 304.836060,231.971100 312.129303,234.671844 
	C336.539673,243.711090 360.908020,252.863724 385.290527,261.978149 
	C414.086182,272.742249 442.873291,283.529205 471.676666,294.272552 
	C489.667297,300.982849 507.692322,307.600952 525.681824,314.314392 
	C550.814270,323.693481 575.931274,333.114105 601.048828,342.533020 
	C630.427246,353.549713 659.782532,364.628418 689.179199,375.596222 
	C712.947021,384.463928 736.769287,393.185577 760.552185,402.013092 
	C775.944702,407.726318 791.309692,413.513580 806.856567,419.592834 
	C806.793945,422.531250 805.658875,425.468811 806.463684,427.709686 
	C821.080078,468.406403 835.901917,509.029510 850.737610,549.647278 
	C865.344666,589.639099 880.024292,629.604492 894.640320,669.593079 
	C895.550842,672.084290 896.184570,674.676636 896.975708,677.607300 
z"/>
<path fill="#E2761B" opacity="1.000000" stroke="none" 
	d="
M1758.600952,226.959000 
	C1757.791748,228.201843 1756.770142,229.722412 1755.383911,230.752274 
	C1625.835327,326.988129 1496.264160,423.193451 1366.682373,519.384644 
	C1296.609009,571.401428 1226.515015,623.390259 1156.426636,675.386841 
	C1155.224854,676.278381 1153.978271,677.109497 1152.431396,678.093384 
	C1156.713379,665.385315 1161.230225,652.520996 1165.936523,639.726318 
	C1178.401123,605.839355 1190.932495,571.976807 1203.466309,538.115295 
	C1216.462158,503.005219 1229.530029,467.921692 1242.453247,432.784912 
	C1243.881714,428.900940 1246.723999,424.891235 1243.157959,420.240967 
	C1249.371704,417.285950 1255.709351,414.484436 1262.182495,412.042206 
	C1286.817139,402.747803 1311.489624,393.553192 1336.159546,384.352448 
	C1357.024292,376.570953 1377.911377,368.849792 1398.777100,361.071167 
	C1427.854980,350.231140 1456.918945,339.353943 1485.994873,328.508820 
	C1506.995728,320.675598 1528.019409,312.903412 1549.009277,305.040710 
	C1571.685059,296.546539 1594.313354,287.925323 1616.999268,279.458527 
	C1637.560425,271.784760 1658.187866,264.288788 1678.756104,256.633942 
	C1703.885010,247.281845 1728.982300,237.844559 1754.095459,228.450226 
	C1755.458862,227.940247 1756.843628,227.487198 1758.600952,226.959000 
z"/>
<path fill="#C0AD9E" opacity="1.000000" stroke="none" 
	d="
M687.399170,1596.020020 
	C686.152832,1594.458008 685.207642,1593.056152 684.338867,1591.062012 
	C685.968445,1587.198608 688.556519,1588.460571 691.228760,1589.207520 
	C692.189026,1589.881226 692.857605,1590.396606 693.603638,1590.747437 
	C725.655579,1605.819580 757.742065,1620.818848 789.764221,1635.953979 
	C818.783020,1649.669800 847.727905,1663.541992 876.720215,1677.314209 
	C879.794678,1678.774658 882.967834,1680.027466 886.156860,1681.403198 
	C886.156860,1663.802124 886.156860,1646.736938 886.452698,1629.864014 
	C888.533203,1629.544312 890.670837,1629.485840 892.030334,1628.427612 
	C895.038330,1626.086060 897.848877,1623.413574 900.380127,1620.557373 
	C903.259460,1617.308228 906.525696,1616.235352 910.882812,1616.243164 
	C982.341064,1616.370728 1053.801270,1616.585449 1125.256470,1616.098145 
	C1138.185791,1616.009888 1149.591553,1617.060791 1157.919312,1628.091187 
	C1158.017700,1628.221436 1158.158447,1628.401489 1158.291016,1628.411743 
	C1160.509277,1628.586060 1162.729126,1628.736816 1164.974854,1629.367188 
	C1164.510376,1646.885132 1164.019775,1663.928711 1163.508423,1681.691528 
	C1165.956055,1680.666016 1167.937500,1679.924438 1169.843872,1679.023804 
	C1194.958618,1667.158569 1220.060913,1655.267090 1245.170044,1643.389648 
	C1275.841919,1628.880981 1306.531250,1614.409058 1337.180786,1599.853394 
	C1344.527466,1596.364502 1351.746826,1592.607544 1359.374878,1588.949707 
	C1362.484375,1587.625122 1364.611450,1588.176636 1365.946289,1591.049194 
	C1365.016724,1592.456055 1364.087280,1593.862793 1363.029785,1595.564941 
	C1348.295898,1607.718628 1333.259644,1619.091187 1319.191162,1631.555908 
	C1300.921021,1647.743408 1280.753784,1661.305908 1261.055542,1675.525146 
	C1249.794800,1683.653442 1238.010132,1691.051880 1226.583618,1698.955688 
	C1202.153198,1715.853882 1177.832886,1732.911621 1153.360962,1749.749023 
	C1151.385010,1751.108521 1148.591187,1751.905762 1146.175903,1751.909058 
	C1065.689087,1752.018921 985.201965,1751.917480 904.715881,1752.172974 
	C898.930908,1752.191284 895.058716,1749.258301 891.059204,1746.570312 
	C876.551514,1736.819458 862.386719,1726.559326 848.063660,1716.532593 
	C829.250977,1703.362915 810.364807,1690.297852 791.597290,1677.064453 
	C776.352478,1666.314819 761.061768,1655.616455 746.124695,1644.449463 
	C736.452026,1637.218384 727.353210,1629.216187 718.044861,1621.502197 
	C707.901245,1613.096191 697.812744,1604.623657 687.399170,1596.020020 
z"/>
<path fill="#E2761B" opacity="1.000000" stroke="none" 
	d="
M1760.577881,226.105042 
	C1760.414062,226.455338 1759.950562,226.775467 1759.203247,227.028229 
	C1759.372314,226.665527 1759.825195,226.370209 1760.577881,226.105042 
z"/>
<path fill="#E4761B" opacity="1.000000" stroke="none" 
	d="
M669.915039,891.053711 
	C747.271667,825.662354 824.330200,760.466675 901.665405,695.082642 
	C903.251648,714.956848 904.593567,735.017395 905.858704,755.082764 
	C906.632629,767.357849 907.255554,779.642456 908.004700,791.919189 
	C909.269714,812.650452 910.619385,833.376648 911.858887,854.109497 
	C912.642578,867.217529 913.216797,880.338196 914.017334,893.445129 
	C915.222778,913.180298 916.557068,932.907532 917.811035,952.639832 
	C918.559387,964.416260 919.254456,976.196106 919.981323,987.973938 
	C921.301758,1009.368713 922.630371,1030.763062 923.944946,1052.158325 
	C924.006226,1053.154663 923.964722,1054.157349 923.541382,1055.572021 
	C920.472595,1055.664673 917.841736,1055.178101 915.193237,1055.047852 
	C900.751221,1054.337280 886.305420,1053.701538 871.859924,1053.064331 
	C848.611145,1052.038696 825.361206,1051.039795 802.112427,1050.014160 
	C787.666931,1049.376709 773.223267,1048.697510 758.777710,1048.060791 
	C735.528870,1047.036011 712.278870,1046.039429 689.030029,1045.014038 
	C674.584595,1044.376953 660.141479,1043.684448 645.695496,1043.060303 
	C621.115051,1041.998535 596.533203,1040.970459 571.951904,1039.928345 
	C575.879700,1033.583374 579.646973,1027.132202 583.761475,1020.910645 
	C607.872864,984.452820 632.069946,948.051758 656.226135,911.623596 
	C660.717468,904.850586 665.154663,898.041687 669.915039,891.053711 
z"/>
<path fill="#E4761B" opacity="1.000000" stroke="none" 
	d="
M1147.946777,696.253784 
	C1158.048340,704.073730 1167.981689,712.158264 1177.760742,720.425293 
	C1237.415894,770.856506 1297.029419,821.336670 1356.675781,871.778198 
	C1363.918457,877.903137 1371.274658,883.893799 1378.929199,890.052002 
	C1397.602417,917.754150 1415.961426,945.326721 1434.234985,972.955627 
	C1448.830200,995.022888 1463.321411,1017.158752 1477.495972,1039.617554 
	C1464.522217,1040.645264 1451.915771,1041.424194 1439.298950,1041.963135 
	C1427.669434,1042.459717 1416.027466,1042.658447 1404.393677,1043.065430 
	C1396.420288,1043.344360 1388.449097,1043.707764 1380.481201,1044.116821 
	C1355.756226,1045.385986 1331.037476,1046.778687 1306.308228,1047.952271 
	C1294.515747,1048.511963 1282.703491,1048.641846 1270.902954,1049.047852 
	C1262.763062,1049.327759 1254.626099,1049.708252 1246.491211,1050.112305 
	C1220.767212,1051.389526 1195.045532,1052.713989 1169.321533,1053.990112 
	C1155.214233,1054.689941 1141.104004,1055.328735 1126.995117,1055.995117 
	C1128.288086,1033.291992 1129.597046,1010.589661 1130.867798,987.885193 
	C1131.609985,974.623230 1132.239624,961.354858 1133.011230,948.094666 
	C1134.255005,926.720398 1135.619751,905.353088 1136.845703,883.977783 
	C1137.644287,870.053223 1138.218140,856.115662 1139.015991,842.191040 
	C1140.240479,820.815613 1141.619141,799.449036 1142.839600,778.073364 
	C1143.644043,763.982666 1144.192383,749.877075 1145.027588,735.788452 
	C1145.802124,722.719421 1146.804932,709.664062 1147.946777,696.253784 
z"/>
<path fill="#161616" opacity="1.000000" stroke="none" 
	d="
M1164.948730,1628.892822 
	C1162.729126,1628.736816 1160.509277,1628.586060 1158.291016,1628.411743 
	C1158.158447,1628.401489 1158.017700,1628.221436 1157.919312,1628.091187 
	C1149.591553,1617.060791 1138.185791,1616.009888 1125.256470,1616.098145 
	C1053.801270,1616.585449 982.341064,1616.370728 910.882812,1616.243164 
	C906.525696,1616.235352 903.259460,1617.308228 900.380127,1620.557373 
	C897.848877,1623.413574 895.038330,1626.086060 892.030334,1628.427612 
	C890.670837,1629.485840 888.533203,1629.544312 886.195801,1629.570068 
	C885.871887,1624.779175 885.905518,1620.453491 886.367798,1616.174316 
	C887.509827,1605.601196 888.897705,1595.054810 890.090454,1584.486816 
	C890.880066,1577.490845 891.421021,1570.466675 892.220032,1563.471924 
	C893.444458,1552.753174 894.801208,1542.049683 896.090515,1531.338257 
	C896.968933,1524.040771 897.912109,1516.750000 898.673523,1509.440186 
	C899.487000,1501.630127 900.120728,1493.801514 900.833008,1485.980957 
	C901.645508,1484.795898 902.208435,1483.255981 903.309753,1482.481567 
	C912.558716,1475.977783 921.906677,1469.614624 929.755371,1464.219238 
	C933.538269,1465.493042 936.040710,1467.066528 938.546936,1467.072632 
	C995.854309,1467.211914 1053.161987,1467.177246 1110.469727,1467.188110 
	C1113.656250,1467.188721 1117.035034,1467.661743 1117.244873,1462.569458 
	C1127.122559,1469.356445 1136.332764,1475.622192 1145.444946,1482.027344 
	C1146.544312,1482.800171 1147.114014,1484.326660 1147.989990,1486.286865 
	C1148.050171,1488.733398 1147.875122,1490.418579 1148.077759,1492.057129 
	C1149.341553,1502.273926 1150.724609,1512.475952 1151.997803,1522.691650 
	C1152.827637,1529.349487 1153.480225,1536.029541 1154.314819,1542.686646 
	C1155.863037,1555.034058 1157.486328,1567.372070 1159.078857,1579.713989 
	C1159.977783,1586.681030 1160.936646,1593.640991 1161.762817,1600.616577 
	C1162.878052,1610.035767 1163.891602,1619.466797 1164.948730,1628.892822 
z"/>
<path fill="#CD6116" opacity="1.000000" stroke="none" 
	d="
M571.682617,1040.146973 
	C596.533203,1040.970459 621.115051,1041.998535 645.695496,1043.060303 
	C660.141479,1043.684448 674.584595,1044.376953 689.030029,1045.014038 
	C712.278870,1046.039429 735.528870,1047.036011 758.777710,1048.060791 
	C773.223267,1048.697510 787.666931,1049.376709 802.112427,1050.014160 
	C825.361206,1051.039795 848.611145,1052.038696 871.859924,1053.064331 
	C886.305420,1053.701538 900.751221,1054.337280 915.193237,1055.047852 
	C917.841736,1055.178101 920.472595,1055.664673 923.531982,1056.018066 
	C923.696838,1059.080322 923.441467,1062.111206 922.982361,1065.906982 
	C922.578308,1067.303833 922.306274,1067.922729 922.187866,1068.569824 
	C914.536255,1110.384399 906.880737,1152.198242 899.265625,1194.019409 
	C896.470337,1209.370483 893.773132,1224.739380 891.031250,1240.100220 
	C889.703186,1239.898682 888.375061,1239.697266 886.748169,1238.893555 
	C870.710632,1204.758179 854.971985,1171.225220 839.096558,1137.400879 
	C836.956360,1138.295044 835.435669,1138.882935 833.953796,1139.556519 
	C801.697021,1154.220337 769.436401,1168.875732 737.200012,1183.584229 
	C732.088074,1185.916626 727.089600,1188.497925 722.038696,1190.964111 
	C718.952637,1190.008545 715.866638,1189.052856 712.320618,1187.678833 
	C710.847351,1185.958740 709.952942,1184.539917 708.803223,1183.372437 
	C684.160400,1158.351196 659.534729,1133.312744 634.808716,1108.373901 
	C615.466187,1088.864868 596.008789,1069.469482 576.546570,1050.079590 
	C574.938599,1048.477661 572.902466,1047.305420 571.065186,1045.933594 
	C571.181213,1044.077637 571.297241,1042.221558 571.682617,1040.146973 
z"/>
<path fill="#CD6116" opacity="1.000000" stroke="none" 
	d="
M1126.983276,1056.439697 
	C1141.104004,1055.328735 1155.214233,1054.689941 1169.321533,1053.990112 
	C1195.045532,1052.713989 1220.767212,1051.389526 1246.491211,1050.112305 
	C1254.626099,1049.708252 1262.763062,1049.327759 1270.902954,1049.047852 
	C1282.703491,1048.641846 1294.515747,1048.511963 1306.308228,1047.952271 
	C1331.037476,1046.778687 1355.756226,1045.385986 1380.481201,1044.116821 
	C1388.449097,1043.707764 1396.420288,1043.344360 1404.393677,1043.065430 
	C1416.027466,1042.658447 1427.669434,1042.459717 1439.298950,1041.963135 
	C1451.915771,1041.424194 1464.522217,1040.645264 1477.590576,1039.949707 
	C1478.394653,1041.700806 1478.741211,1043.473145 1478.677734,1045.676025 
	C1476.610352,1047.465942 1474.813110,1048.687622 1473.317627,1050.206421 
	C1456.511597,1067.274292 1439.785767,1084.421021 1422.972290,1101.481323 
	C1395.644897,1129.209717 1368.265869,1156.887207 1340.921509,1184.598877 
	C1339.874878,1185.659668 1338.962524,1186.853027 1337.987549,1187.984619 
	C1335.170898,1188.927734 1332.354248,1189.870728 1328.943359,1190.595337 
	C1289.649048,1172.726318 1250.949219,1155.075684 1211.849121,1137.242554 
	C1210.677612,1139.546509 1209.756470,1141.266846 1208.915527,1143.025513 
	C1200.304688,1161.033325 1191.663208,1179.026733 1183.119263,1197.066284 
	C1176.502319,1211.036987 1170.011597,1225.067383 1163.464600,1239.071167 
	C1162.212280,1239.634155 1160.959961,1240.197144 1159.379150,1240.406738 
	C1158.998779,1239.389648 1159.004395,1238.715576 1158.886841,1238.063843 
	C1150.124146,1189.471680 1141.377441,1140.876587 1132.557861,1092.294678 
	C1130.840820,1082.836548 1128.837769,1073.430176 1126.966675,1064.000000 
	C1126.968262,1061.628052 1126.969849,1059.256226 1126.983276,1056.439697 
z"/>
<path fill="#CD6116" opacity="1.000000" stroke="none" 
	d="
M1366.223022,1590.851196 
	C1364.611450,1588.176636 1362.484375,1587.625122 1359.333862,1588.621582 
	C1358.607910,1587.288208 1358.273071,1586.258789 1357.954590,1584.767578 
	C1357.512085,1579.016357 1357.190186,1573.710693 1356.570312,1568.440063 
	C1354.108032,1547.499756 1351.510376,1526.575439 1349.043457,1505.635620 
	C1346.537720,1484.366089 1344.167847,1463.080566 1341.662720,1441.811035 
	C1339.157471,1420.541626 1336.586304,1399.280029 1333.989136,1378.021729 
	C1332.681641,1367.319214 1331.252563,1356.631470 1329.878418,1345.937134 
	C1332.139526,1344.624634 1334.344849,1342.296753 1336.670898,1342.169312 
	C1348.964966,1341.494995 1361.287720,1341.210083 1373.603394,1341.091797 
	C1420.580688,1340.640625 1467.559082,1340.330444 1514.536499,1339.895386 
	C1520.686279,1339.838501 1526.832153,1339.362549 1533.432495,1339.096313 
	C1533.054443,1340.724365 1532.371582,1342.435303 1531.371948,1343.935181 
	C1477.441162,1424.869995 1423.485229,1505.787964 1369.517822,1586.698364 
	C1368.599609,1588.075195 1367.509644,1589.337402 1366.223022,1590.851196 
z"/>
<path fill="#CD6116" opacity="1.000000" stroke="none" 
	d="
M690.973267,1588.972412 
	C688.556519,1588.460571 685.968445,1587.198608 684.234619,1590.759277 
	C682.800598,1589.512817 681.408936,1588.068970 680.313721,1586.427368 
	C626.522278,1505.794189 572.754822,1425.145264 518.998962,1344.488403 
	C517.989380,1342.973633 517.152649,1341.343750 516.175476,1339.439941 
	C545.418945,1339.438843 574.722717,1339.722900 604.025146,1340.108765 
	C619.835205,1340.317017 635.642456,1340.722656 651.451782,1340.996826 
	C671.758301,1341.348999 692.068726,1341.547729 712.368408,1342.129395 
	C714.843872,1342.200317 717.263245,1344.227905 719.793823,1346.049316 
	C718.587280,1357.128784 717.265015,1367.503784 716.010498,1377.887085 
	C713.759216,1396.520630 711.544922,1415.158691 709.322021,1433.795776 
	C707.216858,1451.445923 705.100952,1469.094727 703.025635,1486.748413 
	C700.814819,1505.553955 698.581604,1524.357300 696.479919,1543.175171 
	C694.913757,1557.198608 693.541382,1571.243530 691.937439,1585.569580 
	C691.519226,1586.897583 691.246216,1587.934937 690.973267,1588.972412 
z"/>
<path fill="#E4761B" opacity="1.000000" stroke="none" 
	d="
M1329.547241,1346.027832 
	C1331.252563,1356.631470 1332.681641,1367.319214 1333.989136,1378.021729 
	C1336.586304,1399.280029 1339.157471,1420.541626 1341.662720,1441.811035 
	C1344.167847,1463.080566 1346.537720,1484.366089 1349.043457,1505.635620 
	C1351.510376,1526.575439 1354.108032,1547.499756 1356.570312,1568.440063 
	C1357.190186,1573.710693 1357.512085,1579.016357 1357.600342,1584.681152 
	C1288.485352,1551.638184 1219.740967,1518.220093 1150.996582,1484.802002 
	C1160.350342,1477.351440 1169.647827,1469.828979 1179.067627,1462.462769 
	C1217.048706,1432.761719 1255.067261,1403.108643 1293.072632,1373.438721 
	C1303.556885,1365.254150 1314.027710,1357.052368 1324.548462,1348.915161 
	C1325.973145,1347.813232 1327.653931,1347.042480 1329.547241,1346.027832 
z"/>
<path fill="#E4761B" opacity="1.000000" stroke="none" 
	d="
M692.082642,1585.278931 
	C693.541382,1571.243530 694.913757,1557.198608 696.479919,1543.175171 
	C698.581604,1524.357300 700.814819,1505.553955 703.025635,1486.748413 
	C705.100952,1469.094727 707.216858,1451.445923 709.322021,1433.795776 
	C711.544922,1415.158691 713.759216,1396.520630 716.010498,1377.887085 
	C717.265015,1367.503784 718.587280,1357.128784 719.994873,1346.346436 
	C729.694885,1353.101685 739.392212,1360.114746 748.840942,1367.447876 
	C772.506897,1385.814819 796.047180,1404.343506 819.662170,1422.776245 
	C844.588867,1442.233032 869.548645,1461.647705 894.470520,1481.110962 
	C895.640991,1482.025024 896.583984,1483.230225 897.523987,1484.749023 
	C852.455872,1507.177246 807.509644,1529.182617 762.532349,1551.124390 
	C739.077209,1562.566772 715.567627,1573.897705 692.082642,1585.278931 
z"/>
<path fill="#D7C1B3" opacity="1.000000" stroke="none" 
	d="
M1150.694824,1484.906494 
	C1219.740967,1518.220093 1288.485352,1551.638184 1357.583984,1585.142822 
	C1358.273071,1586.258789 1358.607910,1587.288208 1358.983643,1588.645752 
	C1351.746826,1592.607544 1344.527466,1596.364502 1337.180786,1599.853394 
	C1306.531250,1614.409058 1275.841919,1628.880981 1245.170044,1643.389648 
	C1220.060913,1655.267090 1194.958618,1667.158569 1169.843872,1679.023804 
	C1167.937500,1679.924438 1165.956055,1680.666016 1163.508423,1681.691528 
	C1164.019775,1663.928711 1164.510376,1646.885132 1164.974854,1629.367188 
	C1163.891602,1619.466797 1162.878052,1610.035767 1161.762817,1600.616577 
	C1160.936646,1593.640991 1159.977783,1586.681030 1159.078857,1579.713989 
	C1157.486328,1567.372070 1155.863037,1555.034058 1154.314819,1542.686646 
	C1153.480225,1536.029541 1152.827637,1529.349487 1151.997803,1522.691650 
	C1150.724609,1512.475952 1149.341553,1502.273926 1148.077759,1492.057129 
	C1147.875122,1490.418579 1148.050171,1488.733398 1148.095459,1486.641602 
	C1148.891113,1485.812744 1149.642090,1485.411865 1150.694824,1484.906494 
z"/>
<path fill="#D7C1B3" opacity="1.000000" stroke="none" 
	d="
M691.937378,1585.569580 
	C715.567627,1573.897705 739.077209,1562.566772 762.532349,1551.124390 
	C807.509644,1529.182617 852.455872,1507.177246 897.720276,1485.010498 
	C898.772583,1485.130615 899.519653,1485.438354 900.549805,1485.863525 
	C900.120728,1493.801514 899.487000,1501.630127 898.673523,1509.440186 
	C897.912109,1516.750000 896.968933,1524.040771 896.090515,1531.338257 
	C894.801208,1542.049683 893.444458,1552.753174 892.220032,1563.471924 
	C891.421021,1570.466675 890.880066,1577.490845 890.090454,1584.486816 
	C888.897705,1595.054810 887.509827,1605.601196 886.367798,1616.174316 
	C885.905518,1620.453491 885.871887,1624.779175 885.900024,1629.377686 
	C886.156860,1646.736938 886.156860,1663.802124 886.156860,1681.403198 
	C882.967834,1680.027466 879.794678,1678.774658 876.720215,1677.314209 
	C847.727905,1663.541992 818.783020,1649.669800 789.764221,1635.953979 
	C757.742065,1620.818848 725.655579,1605.819580 693.603638,1590.747437 
	C692.857605,1590.396606 692.189026,1589.881226 691.228760,1589.207520 
	C691.246216,1587.934937 691.519226,1586.897583 691.937378,1585.569580 
z"/>
<path fill="#E4751F" opacity="1.000000" stroke="none" 
	d="
M571.120605,1046.294434 
	C572.902466,1047.305420 574.938599,1048.477661 576.546570,1050.079590 
	C596.008789,1069.469482 615.466187,1088.864868 634.808716,1108.373901 
	C659.534729,1133.312744 684.160400,1158.351196 708.803223,1183.372437 
	C709.952942,1184.539917 710.847351,1185.958740 711.964233,1187.577148 
	C711.054077,1189.680542 709.202393,1191.453857 709.173523,1193.256226 
	C709.056458,1200.555420 709.496521,1207.863647 709.739380,1215.168213 
	C709.811218,1217.328491 709.941223,1219.487061 709.992126,1221.647705 
	C710.356506,1237.105347 710.598206,1252.566772 711.092590,1268.020142 
	C711.602478,1283.957397 712.366516,1299.886475 712.980774,1315.820557 
	C713.041626,1317.399170 712.833862,1318.987915 712.687439,1321.779419 
	C711.340881,1319.913452 710.596680,1319.114868 710.115112,1318.180908 
	C698.218384,1295.106445 686.303040,1272.041382 674.486450,1248.925903 
	C656.532043,1213.803589 638.710571,1178.613403 620.718140,1143.510742 
	C605.160034,1113.157104 589.436279,1082.888428 573.810364,1052.569580 
	C572.823242,1050.654297 572.049194,1048.629150 571.120605,1046.294434 
z"/>
<path fill="#E4751F" opacity="1.000000" stroke="none" 
	d="
M1338.344238,1188.086182 
	C1338.962524,1186.853027 1339.874878,1185.659668 1340.921509,1184.598877 
	C1368.265869,1156.887207 1395.644897,1129.209717 1422.972290,1101.481323 
	C1439.785767,1084.421021 1456.511597,1067.274292 1473.317627,1050.206421 
	C1474.813110,1048.687622 1476.610352,1047.465942 1478.590088,1046.007324 
	C1476.580933,1050.670654 1474.316162,1055.466919 1471.906250,1060.189331 
	C1456.388672,1090.597656 1440.879272,1121.010254 1425.290283,1151.382080 
	C1408.181885,1184.713501 1390.990723,1218.002441 1373.835205,1251.309814 
	C1362.474487,1273.366699 1351.115234,1295.424316 1339.745483,1317.476562 
	C1338.997070,1318.928223 1338.164185,1320.336304 1336.843018,1322.714478 
	C1336.436157,1320.722778 1336.018677,1319.717041 1336.060303,1318.730713 
	C1337.029785,1295.816406 1338.046753,1272.903931 1339.059570,1249.991455 
	C1339.705322,1235.381592 1340.328247,1220.770386 1341.027954,1206.163086 
	C1341.226440,1202.017578 1342.037720,1197.862427 1341.812744,1193.753174 
	C1341.708252,1191.846924 1339.794556,1190.039795 1338.344238,1188.086182 
z"/>
<path fill="#E4751F" opacity="1.000000" stroke="none" 
	d="
M1126.766846,1064.350342 
	C1128.837769,1073.430176 1130.840820,1082.836548 1132.557861,1092.294678 
	C1141.377441,1140.876587 1150.124146,1189.471680 1158.886841,1238.063843 
	C1159.004395,1238.715576 1158.998779,1239.389648 1159.082764,1240.461060 
	C1154.959473,1241.455078 1153.597656,1244.136230 1152.843262,1248.029053 
	C1143.312134,1297.214478 1133.642822,1346.373169 1123.984131,1395.533936 
	C1122.041016,1405.423340 1119.993774,1415.292480 1117.176636,1425.072632 
	C1117.119507,1423.970947 1117.012695,1422.869263 1117.012573,1421.767578 
	C1117.008667,1393.614258 1116.911377,1365.460327 1117.044434,1337.307617 
	C1117.291504,1285.022827 1117.396851,1232.734497 1118.157959,1180.456421 
	C1118.408936,1163.214722 1120.523560,1146.001587 1121.740356,1128.772095 
	C1122.536133,1117.502808 1123.178589,1106.222412 1124.021240,1094.956909 
	C1124.776123,1084.864502 1125.711304,1074.785522 1126.766846,1064.350342 
z"/>
<path fill="#E4751F" opacity="1.000000" stroke="none" 
	d="
M891.280762,1240.318237 
	C893.773132,1224.739380 896.470337,1209.370483 899.265625,1194.019409 
	C906.880737,1152.198242 914.536255,1110.384399 922.187866,1068.569824 
	C922.306274,1067.922729 922.578308,1067.303833 922.957581,1066.310791 
	C923.743652,1067.053833 924.804138,1068.124634 924.887512,1069.266724 
	C925.685303,1080.201416 926.281738,1091.150635 927.006042,1102.090942 
	C928.256714,1120.983398 929.570435,1139.871704 930.830200,1158.763672 
	C931.261414,1165.229858 931.939880,1171.701416 931.946350,1178.171021 
	C932.025940,1258.131104 932.002197,1338.091187 932.005066,1418.051270 
	C932.005066,1419.366333 932.005066,1420.681396 932.005066,1421.996460 
	C931.683716,1422.048340 931.362305,1422.100220 931.040955,1422.152100 
	C929.722534,1415.786987 928.336182,1409.435059 927.096619,1403.054688 
	C918.526001,1358.940063 909.984924,1314.819824 901.437195,1270.700684 
	C900.012756,1263.348267 898.390320,1256.025269 897.271973,1248.626343 
	C896.686035,1244.750000 894.953735,1242.163574 891.280762,1240.318237 
z"/>
<path fill="#243447" opacity="1.000000" stroke="none" 
	d="
M1163.894775,1239.098511 
	C1170.011597,1225.067383 1176.502319,1211.036987 1183.119263,1197.066284 
	C1191.663208,1179.026733 1200.304688,1161.033325 1208.915527,1143.025513 
	C1209.756470,1141.266846 1210.677612,1139.546509 1211.849121,1137.242554 
	C1250.949219,1155.075684 1289.649048,1172.726318 1328.565430,1190.627197 
	C1299.487061,1199.543213 1270.205933,1208.256470 1240.892944,1216.860229 
	C1215.389038,1224.346069 1189.849121,1231.708740 1163.894775,1239.098511 
z"/>
<path fill="#243447" opacity="1.000000" stroke="none" 
	d="
M722.391235,1191.085693 
	C727.089600,1188.497925 732.088074,1185.916626 737.200012,1183.584229 
	C769.436401,1168.875732 801.697021,1154.220337 833.953796,1139.556519 
	C835.435669,1138.882935 836.956360,1138.295044 839.096558,1137.400879 
	C854.971985,1171.225220 870.710632,1204.758179 886.490662,1238.680420 
	C872.037598,1234.959839 857.512939,1230.952881 843.054749,1226.719116 
	C809.587036,1216.919189 776.150879,1207.011597 742.703613,1197.141846 
	C736.046326,1195.177368 729.396851,1193.186035 722.391235,1191.085693 
z"/>
</svg>