<svg version="1.1" id="Layer_1" xmlns="http://www.w3.org/2000/svg" xmlns:xlink="http://www.w3.org/1999/xlink" x="0px" y="0px"
	 width="100%" viewBox="0 0 300 300" enable-background="new 0 0 300 300" xml:space="preserve">
<path fill="#ffffff" opacity="1.000000" stroke="none" 
	d="
M301.000000,109.000000 
	C301.000000,173.333328 301.000000,237.166641 301.000000,301.000000 
	C201.000031,301.000000 101.000061,301.000000 1.000066,301.000000 
	C1.000044,201.000046 1.000044,101.000092 1.000022,1.000106 
	C100.999939,1.000071 200.999878,1.000071 300.999908,1.000035 
	C301.000000,36.833332 301.000000,72.666664 301.000000,109.000000 
M136.003479,189.975311 
	C136.003479,189.975311 135.947556,189.924561 135.361801,190.119171 
	C134.988129,190.742828 134.614456,191.366486 134.031540,192.908051 
	C134.116989,214.611832 134.202438,236.315628 134.271729,258.592438 
	C134.840210,259.064575 135.408676,259.536743 135.997025,260.003601 
	C135.997025,260.003601 135.983215,260.022583 136.022247,260.622101 
	C136.692139,260.998138 137.362015,261.374146 137.985764,261.909180 
	C137.985764,261.909180 138.145599,261.952332 138.298401,262.535309 
	C138.867050,262.652588 139.435684,262.769867 140.921097,263.093750 
	C161.516464,263.110840 182.111893,263.161224 202.707199,263.135162 
	C221.470734,263.111420 240.234146,263.004669 259.724213,263.097809 
	C260.794220,262.723145 261.864197,262.348480 263.000244,261.963287 
	C263.000244,261.963287 262.970520,261.903381 263.559845,261.723694 
	C264.061310,261.156036 264.562775,260.588409 265.264404,259.845734 
	C265.264404,259.845734 265.192871,259.589661 265.951080,259.175354 
	C266.324341,257.963776 267.019257,256.753143 267.022919,255.540421 
	C267.084717,234.975876 267.097046,214.410858 266.971313,193.846863 
	C266.963165,192.518433 265.744476,191.197433 265.023346,189.948975 
	C265.023346,189.948975 265.118134,189.916046 265.016083,189.229828 
	C262.998199,188.364807 260.980347,187.499786 258.057983,186.395615 
	C220.200317,186.370819 182.342636,186.343872 144.484970,186.335556 
	C143.668213,186.335388 142.851410,186.548996 141.376038,186.453857 
	C140.241760,186.951447 139.107483,187.449036 137.969467,187.974731 
	C137.969467,187.974731 137.940781,187.972351 137.292648,188.040176 
	C136.839096,188.678497 136.385559,189.316833 136.003479,189.975311 
M43.978943,217.996124 
	C43.978943,217.996124 43.997566,218.023544 43.333618,218.432541 
	C42.896141,219.455994 42.086384,220.476456 42.078171,221.503342 
	C41.985294,233.115753 41.969864,244.729599 42.091007,256.341431 
	C42.101696,257.365570 43.220196,258.378174 43.787033,259.742981 
	C43.787033,259.742981 44.004837,260.015503 44.058823,260.609772 
	C44.384209,260.781097 44.709591,260.952454 45.392105,261.480743 
	C45.678078,261.652710 45.964050,261.824677 46.737339,262.661865 
	C47.543846,262.820465 48.350185,263.116577 49.156879,263.117554 
	C69.866890,263.142303 90.577003,263.154968 111.286819,263.086731 
	C112.467766,263.082855 113.646385,262.373627 115.267014,261.735748 
	C115.509621,261.498291 115.752235,261.260834 116.538475,260.990967 
	C116.662102,260.668304 116.785721,260.345673 117.346672,259.554443 
	C117.557076,259.186157 117.767479,258.817871 118.612572,258.007660 
	C118.712433,243.995087 118.822586,229.982529 118.873116,215.969788 
	C118.875061,215.429672 118.303452,214.887497 117.735565,213.969528 
	C117.735565,213.969528 117.291618,213.849899 117.192390,213.153229 
	C116.144440,212.389969 115.096481,211.626694 113.554718,210.447586 
	C109.491463,208.041275 106.523499,211.112976 104.001839,213.091064 
	C98.248764,217.604034 92.326012,217.556870 85.914108,215.432632 
	C85.000938,215.130112 83.998100,215.098267 82.597107,214.617447 
	C82.066231,214.634277 81.535347,214.651108 80.342072,214.298019 
	C79.846123,214.290329 79.350182,214.282639 78.345627,213.681320 
	C76.545860,213.376007 74.746101,213.070694 72.453262,212.427658 
	C71.694611,212.259521 70.935966,212.091385 69.619835,211.308563 
	C66.497780,211.814133 63.375717,212.319702 60.204502,212.668961 
	C60.204502,212.668961 60.048038,212.717636 59.281837,212.562424 
	C58.523891,212.725739 57.765942,212.889053 56.301060,212.997971 
	C55.868031,213.161301 55.435005,213.324631 54.244869,213.485031 
	C50.833858,214.987473 47.422848,216.489914 43.978943,217.996124 
M43.760166,41.942558 
	C43.760166,41.942558 43.821098,42.065186 43.064114,42.253178 
	C42.705643,43.621063 42.041203,44.987621 42.035282,46.357033 
	C41.963528,62.958519 41.968208,79.560509 42.031647,96.162071 
	C42.036266,97.370514 42.650349,98.576637 43.392059,100.420815 
	C45.168690,101.636642 46.933624,103.889900 48.723728,103.910080 
	C69.921555,104.148972 91.124107,104.137489 112.321785,103.885475 
	C113.968727,103.865891 115.588326,101.546150 117.991287,100.012146 
	C118.304192,99.290825 118.887863,98.570442 118.890358,97.848045 
	C118.950577,80.411720 118.986053,62.974945 118.875565,45.539204 
	C118.868050,44.352215 117.680084,43.172703 117.099678,41.978065 
	C117.099678,41.978065 117.074944,41.923717 117.053352,41.249435 
	C116.389626,40.819752 115.725891,40.390064 115.044533,39.954277 
	C115.044533,39.954277 115.030083,39.942638 114.679230,39.246117 
	C113.289291,38.860703 111.900520,38.144550 110.509232,38.139599 
	C90.352867,38.067924 70.195961,38.056274 50.039970,38.169594 
	C48.650311,38.177406 47.266850,39.287937 45.993809,39.997150 
	C45.993809,39.997150 45.887928,39.879055 45.211212,39.915028 
	C44.768291,40.570332 44.325367,41.225632 43.760166,41.942558 
M179.052612,141.910904 
	C179.052612,151.627930 179.052612,161.344940 179.052612,171.033600 
	C193.708298,171.033600 207.609650,171.033600 221.707367,171.033600 
	C221.707367,160.868484 221.707367,150.961777 221.772781,140.328964 
	C219.361084,136.753052 217.357208,132.794067 214.442413,129.690689 
	C210.036133,124.999382 203.864319,125.784821 198.104111,125.871643 
	C188.156296,126.021591 181.854279,131.123199 179.052612,141.910904 
M118.937538,184.084396 
	C118.887703,164.725876 118.837860,145.367355 118.850990,125.287712 
	C117.452759,121.227921 114.466553,119.192215 110.312996,119.177322 
	C90.512764,119.106300 70.712074,119.118683 50.911697,119.163788 
	C46.820629,119.173103 43.605064,120.736290 42.084160,125.911842 
	C42.052876,148.087540 42.006447,170.263245 42.031490,192.438873 
	C42.032856,193.648010 42.630871,194.856445 43.245296,196.699417 
	C45.015907,200.569565 48.311943,201.578506 51.891762,200.297638 
	C61.876572,196.725052 71.527924,197.517380 81.543518,200.562195 
	C86.737518,202.141220 92.327316,205.246765 98.168816,201.082626 
	C103.475815,197.299500 109.352516,194.319946 114.705513,190.594528 
	C116.484573,189.356384 117.418655,186.904114 118.937538,184.084396 
M260.104462,38.237736 
	C228.365799,38.214989 196.627151,38.174316 164.888489,38.182049 
	C156.918671,38.183990 148.948868,38.341240 140.279968,38.305767 
	C138.263809,40.196018 136.247650,42.086266 134.027191,44.901039 
	C134.013641,84.105431 133.997574,123.309814 133.998886,162.514206 
	C133.998932,163.667465 134.181763,164.820709 134.279251,166.676407 
	C136.280960,170.205719 139.236877,171.606476 143.335129,171.367386 
	C147.980057,171.096390 152.653412,171.348846 157.313370,171.290680 
	C162.824905,171.221878 165.739410,168.319260 165.828461,162.679810 
	C165.928314,156.356094 165.995941,150.026749 165.844513,143.705444 
	C165.650787,135.620026 169.001450,129.050583 173.867859,122.915886 
	C175.438904,120.935387 177.107544,118.435257 177.277603,116.068375 
	C177.602356,111.548035 176.860687,106.953964 176.601181,102.388252 
	C175.543823,83.785439 194.235535,71.437424 211.153336,79.703690 
	C223.094315,85.538216 226.095718,94.255371 223.648224,109.089851 
	C222.665665,115.045204 223.849426,119.383423 227.733109,123.808975 
	C232.793594,129.575546 235.440170,136.457916 235.194962,144.356781 
	C234.998825,150.675262 235.077713,157.007950 235.228455,163.329697 
	C235.347275,168.311401 238.371841,171.208267 243.296799,171.278824 
	C248.289383,171.350372 253.287033,171.186737 258.276276,171.334625 
	C262.404358,171.456970 265.259552,169.870834 266.984802,165.066193 
	C267.007538,125.544876 267.032074,86.023567 267.040314,46.502247 
	C267.040466,45.682285 266.851349,44.862282 266.822998,43.359982 
	C264.888275,41.732105 262.953522,40.104229 260.104462,38.237736 
M189.819412,103.016602 
	C190.926041,108.706848 194.753143,112.144707 200.249496,112.385872 
	C204.567017,112.575310 209.578201,109.349777 210.821915,105.580757 
	C212.455307,100.630920 210.834473,94.163498 206.290024,92.242821 
	C203.111084,90.899261 198.691635,90.643555 195.452286,91.744316 
	C191.125504,93.214592 189.321899,97.464233 189.819412,103.016602 
z"/>
<path fill="#55B585" opacity="1.000000" stroke="none" 
	d="
M266.753296,165.976242 
	C265.259552,169.870834 262.404358,171.456970 258.276276,171.334625 
	C253.287033,171.186737 248.289383,171.350372 243.296799,171.278824 
	C238.371841,171.208267 235.347275,168.311401 235.228455,163.329697 
	C235.077713,157.007950 234.998825,150.675262 235.194962,144.356781 
	C235.440170,136.457916 232.793594,129.575546 227.733109,123.808975 
	C223.849426,119.383423 222.665665,115.045204 223.648224,109.089851 
	C226.095718,94.255371 223.094315,85.538216 211.153336,79.703690 
	C194.235535,71.437424 175.543823,83.785439 176.601181,102.388252 
	C176.860687,106.953964 177.602356,111.548035 177.277603,116.068375 
	C177.107544,118.435257 175.438904,120.935387 173.867859,122.915886 
	C169.001450,129.050583 165.650787,135.620026 165.844513,143.705444 
	C165.995941,150.026749 165.928314,156.356094 165.828461,162.679810 
	C165.739410,168.319260 162.824905,171.221878 157.313370,171.290680 
	C152.653412,171.348846 147.980057,171.096390 143.335129,171.367386 
	C139.236877,171.606476 136.280960,170.205719 134.415375,165.938995 
	C134.706161,163.717484 134.994812,162.233444 134.995880,160.749222 
	C135.022476,123.622391 135.029785,86.495514 134.986908,49.368710 
	C134.984833,47.571026 134.494476,45.773903 134.231506,43.976517 
	C136.247650,42.086266 138.263809,40.196018 140.893585,38.621613 
	C143.423248,39.291370 145.338791,39.950676 147.255432,39.953960 
	C183.155014,40.015472 219.054779,40.023792 254.954239,39.934113 
	C256.976959,39.929066 258.997314,38.983944 261.018768,38.476357 
	C262.953522,40.104229 264.888275,41.732105 266.649017,44.084602 
	C266.317902,46.458332 266.024780,48.107342 266.023560,49.756561 
	C265.996674,86.530876 265.990326,123.305237 266.033142,160.079529 
	C266.035431,162.045380 266.502533,164.010681 266.753296,165.976242 
z"/>
<path fill="#55B685" opacity="1.000000" stroke="none" 
	d="
M265.192871,259.589661 
	C265.192871,259.589661 265.264404,259.845734 264.895203,260.044250 
	C264.007538,260.796295 263.489044,261.349854 262.970520,261.903381 
	C262.970520,261.903381 263.000244,261.963287 262.574158,261.968933 
	C261.099335,261.987274 260.050598,261.999939 258.533051,262.010010 
	C218.714981,262.009247 179.365692,262.011017 139.704315,262.000732 
	C138.976700,261.976532 138.561142,261.964417 138.145599,261.952332 
	C138.145599,261.952332 137.985764,261.909180 137.867737,261.595581 
	C137.160889,260.862183 136.572052,260.442383 135.983215,260.022583 
	C135.983215,260.022583 135.997025,260.003601 135.907410,259.722778 
	C135.541580,258.920074 135.265335,258.398224 134.998428,257.415527 
	C135.004913,235.329803 135.002075,213.704880 135.160309,191.830032 
	C135.530090,191.028244 135.738831,190.476410 135.947556,189.924561 
	C135.947556,189.924561 136.003479,189.975311 136.237366,189.847382 
	C136.961090,189.137070 137.450943,188.554718 137.940781,187.972351 
	C137.940781,187.972351 137.969467,187.974731 138.373230,187.975647 
	C139.852585,187.977112 140.928177,187.977676 142.472168,187.982025 
	C181.627106,187.985062 220.313629,187.984299 259.345093,188.074524 
	C261.499420,188.749008 263.308777,189.332535 265.118134,189.916046 
	C265.118134,189.916046 265.023346,189.948975 265.124512,190.329712 
	C265.484985,195.355652 265.999420,200.003082 265.958710,204.645645 
	C265.798065,222.961151 265.463135,241.275116 265.192871,259.589661 
z"/>
<path fill="#54B484" opacity="1.000000" stroke="none" 
	d="
M42.300797,124.991470 
	C43.605064,120.736290 46.820629,119.173103 50.911697,119.163788 
	C70.712074,119.118683 90.512764,119.106300 110.312996,119.177322 
	C114.466553,119.192215 117.452759,121.227921 118.675278,126.033005 
	C118.335983,128.092270 118.032753,129.405960 118.030037,130.720276 
	C117.995956,147.182922 117.984726,163.645737 118.035767,180.108292 
	C118.040833,181.741882 118.493912,183.374084 118.739044,185.006927 
	C117.418655,186.904114 116.484573,189.356384 114.705513,190.594528 
	C109.352516,194.319946 103.475815,197.299500 98.168816,201.082626 
	C92.327316,205.246765 86.737518,202.141220 81.543518,200.562195 
	C71.527924,197.517380 61.876572,196.725052 51.891762,200.297638 
	C48.311943,201.578506 45.015907,200.569565 43.113644,195.909683 
	C42.993858,173.541718 43.022789,151.963455 42.986404,130.385300 
	C42.983372,128.586975 42.539726,126.789398 42.300797,124.991470 
M86.478844,144.996002 
	C86.478844,144.996002 86.017197,144.872894 85.637802,144.335709 
	C83.607536,144.208420 81.577263,144.081131 78.722511,143.931686 
	C78.450272,143.893387 78.178024,143.855087 77.407227,143.615387 
	C76.263954,144.106155 75.120682,144.596924 73.690002,145.651184 
	C72.260361,146.785339 70.830727,147.919510 68.851280,149.477539 
	C68.571663,149.843094 68.292046,150.208633 68.123436,150.794922 
	C68.123436,150.794922 67.983086,150.998245 67.369385,151.440857 
	C64.792839,156.702103 65.368736,162.076279 68.936340,165.485260 
	C68.936340,165.485260 69.025627,165.950119 69.295006,166.339813 
	C69.495537,166.586075 69.721222,166.806595 70.331566,167.305099 
	C70.568024,167.512390 70.787437,167.736374 71.226242,168.347885 
	C71.403732,168.582443 71.602158,168.797699 72.084846,169.481979 
	C72.384560,169.691254 72.684273,169.900513 73.502762,170.604736 
	C76.007339,170.721725 78.511909,170.838715 81.833969,171.100998 
	C87.062256,171.880234 89.675766,167.915924 93.412933,164.556351 
	C93.867775,163.498764 94.322617,162.441177 94.581818,160.820755 
	C94.627335,160.035431 94.672844,159.250107 94.840431,157.589676 
	C95.065018,154.086029 95.231056,150.607574 90.614639,148.858704 
	C90.395157,148.596146 90.175674,148.333588 89.752029,147.445801 
	C88.820061,146.636459 87.888100,145.827118 86.478844,144.996002 
z"/>
<path fill="#55B686" opacity="1.000000" stroke="none" 
	d="
M117.220642,100.295471 
	C115.588326,101.546150 113.968727,103.865891 112.321785,103.885475 
	C91.124107,104.137489 69.921555,104.148972 48.723728,103.910080 
	C46.933624,103.889900 45.168690,101.636642 43.194290,99.648148 
	C43.003674,89.563591 42.909286,80.250198 43.046062,70.940216 
	C43.187485,61.313488 43.553387,51.690060 43.821098,42.065186 
	C43.821098,42.065186 43.760166,41.942558 44.095474,41.798714 
	C44.916496,41.062931 45.402214,40.470993 45.887932,39.879055 
	C45.887928,39.879055 45.993809,39.997150 46.412048,39.970848 
	C69.563553,39.943913 92.296814,39.943275 115.030083,39.942638 
	C115.030083,39.942638 115.044533,39.954277 115.164200,40.229324 
	C115.880890,40.977482 116.477921,41.450600 117.074944,41.923717 
	C117.074944,41.923717 117.099678,41.978065 117.157944,42.390305 
	C117.217690,61.966854 117.219162,81.131165 117.220642,100.295471 
z"/>
<path fill="#55B585" opacity="1.000000" stroke="none" 
	d="
M70.177315,211.923264 
	C70.935966,212.091385 71.694611,212.259521 72.964066,212.792908 
	C75.267990,213.530411 77.061111,213.902664 78.854233,214.274933 
	C79.350182,214.282639 79.846123,214.290329 80.805374,214.629517 
	C81.858032,214.954376 82.447395,214.947769 83.036758,214.941147 
	C83.998100,215.098267 85.000938,215.130112 85.914108,215.432632 
	C92.326012,217.556870 98.248764,217.604034 104.001839,213.091064 
	C106.523499,211.112976 109.491463,208.041275 114.002663,210.901566 
	C115.397614,212.186996 116.344612,213.018448 117.291611,213.849899 
	C117.291618,213.849899 117.735565,213.969528 117.863510,214.601959 
	C117.986923,229.639450 117.982399,244.044525 117.977882,258.449585 
	C117.767479,258.817871 117.557076,259.186157 116.963577,259.944183 
	C116.368835,260.549774 116.173622,260.779602 115.994843,261.023376 
	C115.752235,261.260834 115.509621,261.498291 114.589355,261.864899 
	C91.357803,261.994904 68.803909,261.995789 46.250023,261.996643 
	C45.964050,261.824677 45.678078,261.652710 45.054153,261.106201 
	C44.479076,260.492950 44.241955,260.254211 44.004837,260.015503 
	C44.004837,260.015503 43.787033,259.742981 43.756313,259.135193 
	C43.492352,255.736542 43.013191,252.940720 43.069450,250.155716 
	C43.285843,239.443100 43.673668,228.733978 43.997566,218.023544 
	C43.997566,218.023544 43.978943,217.996124 44.352371,217.905228 
	C48.151188,216.372208 51.576580,214.930084 55.001976,213.487946 
	C55.435005,213.324631 55.868031,213.161301 56.905586,213.148117 
	C58.356091,213.104721 59.202065,212.911179 60.048038,212.717636 
	C60.048038,212.717636 60.204502,212.668961 60.689770,212.702118 
	C64.175797,212.464600 67.176552,212.193939 70.177315,211.923264 
z"/>
<path fill="#55B585" opacity="1.000000" stroke="none" 
	d="
M179.249298,140.987259 
	C181.854279,131.123199 188.156296,126.021591 198.104111,125.871643 
	C203.864319,125.784821 210.036133,124.999382 214.442413,129.690689 
	C217.357208,132.794067 219.361084,136.753052 221.607513,141.076447 
	C221.287857,149.270676 220.962952,156.719330 221.045059,164.163483 
	C221.091934,168.414383 219.531128,170.134247 215.217773,170.052216 
	C205.770828,169.872559 196.317947,170.024109 186.867645,169.995300 
	C180.450989,169.975739 180.129105,169.560272 179.979935,163.278519 
	C179.803436,155.846497 179.498535,148.417542 179.249298,140.987259 
z"/>
<path fill="#53AD80" opacity="1.000000" stroke="none" 
	d="
M189.800751,102.636742 
	C189.321899,97.464233 191.125504,93.214592 195.452286,91.744316 
	C198.691635,90.643555 203.111084,90.899261 206.290024,92.242821 
	C210.834473,94.163498 212.455307,100.630920 210.821915,105.580757 
	C209.578201,109.349777 204.567017,112.575310 200.249496,112.385872 
	C194.753143,112.144707 190.926041,108.706848 189.800751,102.636742 
z"/>
<path fill="#60B289" opacity="1.000000" stroke="none" 
	d="
M260.561615,38.357048 
	C258.997314,38.983944 256.976959,39.929066 254.954239,39.934113 
	C219.054779,40.023792 183.155014,40.015472 147.255432,39.953960 
	C145.338791,39.950676 143.423248,39.291370 141.243134,38.682285 
	C148.948868,38.341240 156.918671,38.183990 164.888489,38.182049 
	C196.627151,38.174316 228.365799,38.214989 260.561615,38.357048 
z"/>
<path fill="#62B18A" opacity="1.000000" stroke="none" 
	d="
M259.000153,187.983536 
	C220.313629,187.984299 181.627106,187.985062 142.479828,187.763123 
	C142.036163,187.248138 142.041351,186.955612 142.034637,186.662872 
	C142.851410,186.548996 143.668213,186.335388 144.484970,186.335556 
	C182.342636,186.343872 220.200317,186.370819 258.510742,186.740219 
	C258.976440,187.384369 258.988647,187.683945 259.000153,187.983536 
z"/>
<path fill="#569978" opacity="1.000000" stroke="none" 
	d="
M114.854660,39.594376 
	C92.296814,39.943275 69.563553,39.943913 46.355400,39.915100 
	C47.266850,39.287937 48.650311,38.177406 50.039970,38.169594 
	C70.195961,38.056274 90.352867,38.067924 110.509232,38.139599 
	C111.900520,38.144550 113.289291,38.860703 114.854660,39.594376 
z"/>
<path fill="#62AE88" opacity="1.000000" stroke="none" 
	d="
M266.869049,165.521210 
	C266.502533,164.010681 266.035431,162.045380 266.033142,160.079529 
	C265.990326,123.305237 265.996674,86.530876 266.023560,49.756561 
	C266.024780,48.107342 266.317902,46.458332 266.612793,44.425762 
	C266.851349,44.862282 267.040466,45.682285 267.040314,46.502247 
	C267.032074,86.023567 267.007538,125.544876 266.869049,165.521210 
z"/>
<path fill="#6DA88A" opacity="1.000000" stroke="none" 
	d="
M134.129349,44.438778 
	C134.494476,45.773903 134.984833,47.571026 134.986908,49.368710 
	C135.029785,86.495514 135.022476,123.622391 134.995880,160.749222 
	C134.994812,162.233444 134.706161,163.717484 134.415436,165.587784 
	C134.181763,164.820709 133.998932,163.667465 133.998886,162.514206 
	C133.997574,123.309814 134.013641,84.105431 134.129349,44.438778 
z"/>
<path fill="#63AF89" opacity="1.000000" stroke="none" 
	d="
M140.016403,262.012787 
	C179.365692,262.011017 218.714981,262.009247 258.531982,262.240387 
	C258.999695,262.473328 258.997620,262.934479 258.997620,262.934509 
	C240.234146,263.004669 221.470734,263.111420 202.707199,263.135162 
	C182.111893,263.161224 161.516464,263.110840 140.465515,262.771851 
	C140.009949,262.449951 140.016403,262.012787 140.016403,262.012787 
z"/>
<path fill="#64AD8A" opacity="1.000000" stroke="none" 
	d="
M179.150955,141.449081 
	C179.498535,148.417542 179.803436,155.846497 179.979935,163.278519 
	C180.129105,169.560272 180.450989,169.975739 186.867645,169.995300 
	C196.317947,170.024109 205.770828,169.872559 215.217773,170.052216 
	C219.531128,170.134247 221.091934,168.414383 221.045059,164.163483 
	C220.962952,156.719330 221.287857,149.270676 221.574799,141.439499 
	C221.707367,150.961777 221.707367,160.868484 221.707367,171.033600 
	C207.609650,171.033600 193.708298,171.033600 179.052612,171.033600 
	C179.052612,161.344940 179.052612,151.627930 179.150955,141.449081 
z"/>
<path fill="#60AA85" opacity="1.000000" stroke="none" 
	d="
M265.571960,259.382507 
	C265.463135,241.275116 265.798065,222.961151 265.958710,204.645645 
	C265.999420,200.003082 265.484985,195.355652 265.157288,190.291718 
	C265.744476,191.197433 266.963165,192.518433 266.971313,193.846863 
	C267.097046,214.410858 267.084717,234.975876 267.022919,255.540421 
	C267.019257,256.753143 266.324341,257.963776 265.571960,259.382507 
z"/>
<path fill="#6DA78A" opacity="1.000000" stroke="none" 
	d="
M42.192478,125.451660 
	C42.539726,126.789398 42.983372,128.586975 42.986404,130.385300 
	C43.022789,151.963455 42.993858,173.541718 42.966576,195.592590 
	C42.630871,194.856445 42.032856,193.648010 42.031490,192.438873 
	C42.006447,170.263245 42.052876,148.087540 42.192478,125.451660 
z"/>
<path fill="#61AC87" opacity="1.000000" stroke="none" 
	d="
M46.493683,262.329254 
	C68.803909,261.995789 91.357803,261.994904 114.368889,261.993347 
	C113.646385,262.373627 112.467766,263.082855 111.286819,263.086731 
	C90.577003,263.154968 69.866890,263.142303 49.156879,263.117554 
	C48.350185,263.116577 47.543846,262.820465 46.493683,262.329254 
z"/>
<path fill="#6DA789" opacity="1.000000" stroke="none" 
	d="
M134.999237,192.079971 
	C135.002075,213.704880 135.004913,235.329803 134.823242,257.451202 
	C134.638748,257.947693 134.287888,258.019409 134.287888,258.019409 
	C134.202438,236.315628 134.116989,214.611832 134.325745,192.471771 
	C134.619934,192.035507 134.999237,192.079971 134.999237,192.079971 
z"/>
<path fill="#63AC88" opacity="1.000000" stroke="none" 
	d="
M117.605965,100.153809 
	C117.219162,81.131165 117.217690,61.966854 117.128662,42.396126 
	C117.680084,43.172703 118.868050,44.352215 118.875565,45.539204 
	C118.986053,62.974945 118.950577,80.411720 118.890358,97.848045 
	C118.887863,98.570442 118.304192,99.290825 117.605965,100.153809 
z"/>
<path fill="#6DA88A" opacity="1.000000" stroke="none" 
	d="
M43.442604,42.159180 
	C43.553387,51.690060 43.187485,61.313488 43.046062,70.940216 
	C42.909286,80.250198 43.003674,89.563591 42.988800,99.329659 
	C42.650349,98.576637 42.036266,97.370514 42.031647,96.162071 
	C41.968208,79.560509 41.963528,62.958519 42.035282,46.357033 
	C42.041203,44.987621 42.705643,43.621063 43.442604,42.159180 
z"/>
<path fill="#64AD89" opacity="1.000000" stroke="none" 
	d="
M118.838295,184.545654 
	C118.493912,183.374084 118.040833,181.741882 118.035767,180.108292 
	C117.984726,163.645737 117.995956,147.182922 118.030037,130.720276 
	C118.032753,129.405960 118.335983,128.092270 118.643791,126.393562 
	C118.837860,145.367355 118.887703,164.725876 118.838295,184.545654 
z"/>
<path fill="#61AC87" opacity="1.000000" stroke="none" 
	d="
M43.665592,218.228043 
	C43.673668,228.733978 43.285843,239.443100 43.069450,250.155716 
	C43.013191,252.940720 43.492352,255.736542 43.774879,258.961761 
	C43.220196,258.378174 42.101696,257.365570 42.091007,256.341431 
	C41.969864,244.729599 41.985294,233.115753 42.078171,221.503342 
	C42.086384,220.476456 42.896141,219.455994 43.665592,218.228043 
z"/>
<path fill="#61AC87" opacity="1.000000" stroke="none" 
	d="
M118.295227,258.228638 
	C117.982399,244.044525 117.986923,229.639450 117.995270,214.790344 
	C118.303452,214.887497 118.875061,215.429672 118.873116,215.969788 
	C118.822586,229.982529 118.712433,243.995087 118.295227,258.228638 
z"/>
<path fill="#61AC87" opacity="1.000000" stroke="none" 
	d="
M54.623421,213.486481 
	C51.576580,214.930084 48.151188,216.372208 44.368816,217.903351 
	C47.422848,216.489914 50.833858,214.987473 54.623421,213.486481 
z"/>
<path fill="#60AA85" opacity="1.000000" stroke="none" 
	d="
M259.345093,188.074524 
	C258.988647,187.683945 258.976440,187.384369 258.962952,186.859802 
	C260.980347,187.499786 262.998199,188.364807 265.067108,189.572937 
	C263.308777,189.332535 261.499420,188.749008 259.345093,188.074524 
z"/>
<path fill="#61AC87" opacity="1.000000" stroke="none" 
	d="
M69.898575,211.615906 
	C67.176552,212.193939 64.175797,212.464600 60.714348,212.780273 
	C63.375717,212.319702 66.497780,211.814133 69.898575,211.615906 
z"/>
<path fill="#61AC87" opacity="1.000000" stroke="none" 
	d="
M78.599930,213.978119 
	C77.061111,213.902664 75.267990,213.530411 73.210602,212.961761 
	C74.746101,213.070694 76.545860,213.376007 78.599930,213.978119 
z"/>
<path fill="#60AA85" opacity="1.000000" stroke="none" 
	d="
M141.705338,186.558365 
	C142.041351,186.955612 142.036163,187.248138 142.011414,187.759338 
	C140.928177,187.977676 139.852585,187.977112 138.375092,187.961578 
	C139.107483,187.449036 140.241760,186.951447 141.705338,186.558365 
z"/>
<path fill="#61AC87" opacity="1.000000" stroke="none" 
	d="
M117.242004,213.501556 
	C116.344612,213.018448 115.397614,212.186996 114.249573,211.109497 
	C115.096481,211.626694 116.144440,212.389969 117.242004,213.501556 
z"/>
<path fill="#60AA85" opacity="1.000000" stroke="none" 
	d="
M134.279816,258.305908 
	C134.287888,258.019409 134.638748,257.947693 134.813934,257.912048 
	C135.265335,258.398224 135.541580,258.920074 135.897476,259.725403 
	C135.408676,259.536743 134.840210,259.064575 134.279816,258.305908 
z"/>
<path fill="#60AA85" opacity="1.000000" stroke="none" 
	d="
M136.002716,260.322327 
	C136.572052,260.442383 137.160889,260.862183 137.890808,261.516052 
	C137.362015,261.374146 136.692139,260.998138 136.002716,260.322327 
z"/>
<path fill="#60AA85" opacity="1.000000" stroke="none" 
	d="
M263.265198,261.813538 
	C263.489044,261.349854 264.007538,260.796295 264.795135,260.131744 
	C264.562775,260.588409 264.061310,261.156036 263.265198,261.813538 
z"/>
<path fill="#60AA85" opacity="1.000000" stroke="none" 
	d="
M259.360901,263.016144 
	C258.997620,262.934479 258.999695,262.473328 259.000763,262.242981 
	C260.050598,261.999939 261.099335,261.987274 262.541138,261.974182 
	C261.864197,262.348480 260.794220,262.723145 259.360901,263.016144 
z"/>
<path fill="#61AC87" opacity="1.000000" stroke="none" 
	d="
M82.816933,214.779297 
	C82.447395,214.947769 81.858032,214.954376 81.136566,214.814484 
	C81.535347,214.651108 82.066231,214.634277 82.816933,214.779297 
z"/>
<path fill="#60AA85" opacity="1.000000" stroke="none" 
	d="
M135.160309,191.830032 
	C134.999237,192.079971 134.619934,192.035507 134.430359,192.012833 
	C134.614456,191.366486 134.988129,190.742828 135.654678,190.021866 
	C135.738831,190.476410 135.530090,191.028244 135.160309,191.830032 
z"/>
<path fill="#60AA85" opacity="1.000000" stroke="none" 
	d="
M137.616714,188.006256 
	C137.450943,188.554718 136.961090,189.137070 136.201630,189.837296 
	C136.385559,189.316833 136.839096,188.678497 137.616714,188.006256 
z"/>
<path fill="#569978" opacity="1.000000" stroke="none" 
	d="
M117.064148,41.586578 
	C116.477921,41.450600 115.880890,40.977482 115.173019,40.232376 
	C115.725891,40.390064 116.389626,40.819752 117.064148,41.586578 
z"/>
<path fill="#569978" opacity="1.000000" stroke="none" 
	d="
M45.549572,39.897041 
	C45.402214,40.470993 44.916496,41.062931 44.156616,41.767899 
	C44.325367,41.225632 44.768291,40.570332 45.549572,39.897041 
z"/>
<path fill="#61AC87" opacity="1.000000" stroke="none" 
	d="
M59.664940,212.640030 
	C59.202065,212.911179 58.356091,213.104721 57.259056,213.175323 
	C57.765942,212.889053 58.523891,212.725739 59.664940,212.640030 
z"/>
<path fill="#60AA85" opacity="1.000000" stroke="none" 
	d="
M139.704315,262.000732 
	C140.016403,262.012787 140.009949,262.449951 140.007141,262.668549 
	C139.435684,262.769867 138.867050,262.652588 138.222000,262.243835 
	C138.561142,261.964417 138.976700,261.976532 139.704315,262.000732 
z"/>
<path fill="#61AC87" opacity="1.000000" stroke="none" 
	d="
M44.031830,260.312622 
	C44.241955,260.254211 44.479076,260.492950 44.875587,260.927734 
	C44.709591,260.952454 44.384209,260.781097 44.031830,260.312622 
z"/>
<path fill="#61AC87" opacity="1.000000" stroke="none" 
	d="
M116.266655,261.007172 
	C116.173622,260.779602 116.368835,260.549774 116.744911,260.178467 
	C116.785721,260.345673 116.662102,260.668304 116.266655,261.007172 
z"/>
<path fill="#50A67B" opacity="1.000000" stroke="none" 
	d="
M81.016479,170.955704 
	C78.511909,170.838715 76.007339,170.721725 73.583916,170.304932 
	C74.956093,170.083664 76.247108,170.162216 77.538132,170.240784 
	C77.761078,169.793655 77.984016,169.346527 78.206963,168.899414 
	C74.979019,166.024597 71.751076,163.149780 68.523132,160.274979 
	C68.153946,160.666687 67.784760,161.058411 67.415573,161.450134 
	C67.885414,162.641800 68.355247,163.833481 68.825081,165.025162 
	C65.368736,162.076279 64.792839,156.702103 67.668640,151.558228 
	C68.054741,152.696167 68.141602,153.716766 68.228455,154.737350 
	C68.971619,154.601440 70.003349,154.731216 70.412056,154.287354 
	C73.525513,150.905899 76.517311,147.412415 79.546997,143.953827 
	C81.577263,144.081131 83.607536,144.208420 85.533249,144.648041 
	C84.451317,145.119553 83.473938,145.278748 81.697182,145.568161 
	C85.589691,149.267593 88.803474,152.321960 92.017250,155.376328 
	C92.378136,155.036728 92.739021,154.697128 93.099907,154.357529 
	C92.443008,152.560272 91.786102,150.763016 91.129204,148.965759 
	C95.231056,150.607574 95.065018,154.086029 94.470131,158.045135 
	C89.738716,162.652298 85.377602,166.804001 81.016479,170.955704 
z"/>
<path fill="#0D2F1D" opacity="1.000000" stroke="none" 
	d="
M81.425224,171.028351 
	C85.377602,166.804001 89.738716,162.652298 94.409088,158.482697 
	C94.672844,159.250107 94.627335,160.035431 94.369911,161.297180 
	C93.730431,162.853973 93.302849,163.934341 92.875275,165.014694 
	C89.675766,167.915924 87.062256,171.880234 81.425224,171.028351 
z"/>
<path fill="#0D291A" opacity="1.000000" stroke="none" 
	d="
M79.134750,143.942749 
	C76.517311,147.412415 73.525513,150.905899 70.412056,154.287354 
	C70.003349,154.731216 68.971619,154.601440 68.228455,154.737350 
	C68.141602,153.716766 68.054741,152.696167 67.975487,151.336914 
	C67.983086,150.998245 68.123436,150.794922 68.342499,150.474335 
	C68.841400,149.787064 69.121239,149.420364 69.401085,149.053665 
	C70.830727,147.919510 72.260361,146.785339 74.196228,145.353149 
	C75.770226,144.642319 76.837997,144.229553 77.905777,143.816772 
	C78.178024,143.855087 78.450272,143.893387 79.134750,143.942749 
z"/>
<path fill="#031C0F" opacity="1.000000" stroke="none" 
	d="
M68.880707,165.255219 
	C68.355247,163.833481 67.885414,162.641800 67.415573,161.450134 
	C67.784760,161.058411 68.153946,160.666687 68.523132,160.274979 
	C71.751076,163.149780 74.979019,166.024597 78.206963,168.899414 
	C77.984016,169.346527 77.761078,169.793655 77.538132,170.240784 
	C76.247108,170.162216 74.956093,170.083664 73.324524,170.057449 
	C72.684273,169.900513 72.384560,169.691254 71.959885,168.974075 
	C71.553223,168.303131 71.271515,168.140091 70.989807,167.977066 
	C70.787437,167.736374 70.568024,167.512390 70.118828,166.892578 
	C69.612602,166.303406 69.319115,166.126770 69.025627,165.950119 
	C69.025627,165.950119 68.936340,165.485260 68.880707,165.255219 
z"/>
<path fill="#081F13" opacity="1.000000" stroke="none" 
	d="
M90.871918,148.912231 
	C91.786102,150.763016 92.443008,152.560272 93.099907,154.357529 
	C92.739021,154.697128 92.378136,155.036728 92.017250,155.376328 
	C88.803474,152.321960 85.589691,149.267593 81.697182,145.568161 
	C83.473938,145.278748 84.451317,145.119553 85.722946,144.916626 
	C86.017197,144.872894 86.478844,144.996002 86.873093,145.278656 
	C88.163620,146.397888 89.059906,147.234467 89.956192,148.071030 
	C90.175674,148.333588 90.395157,148.596146 90.871918,148.912231 
z"/>
<path fill="#50A67B" opacity="1.000000" stroke="none" 
	d="
M77.656502,143.716080 
	C76.837997,144.229553 75.770226,144.642319 74.339928,145.071381 
	C75.120682,144.596924 76.263954,144.106155 77.656502,143.716080 
z"/>
<path fill="#50A67B" opacity="1.000000" stroke="none" 
	d="
M89.854111,147.758423 
	C89.059906,147.234467 88.163620,146.397888 87.111740,145.289551 
	C87.888100,145.827118 88.820061,146.636459 89.854111,147.758423 
z"/>
<path fill="#50A67B" opacity="1.000000" stroke="none" 
	d="
M93.144104,164.785522 
	C93.302849,163.934341 93.730431,162.853973 94.467728,161.578613 
	C94.322617,162.441177 93.867775,163.498764 93.144104,164.785522 
z"/>
<path fill="#50A67B" opacity="1.000000" stroke="none" 
	d="
M71.108025,168.162476 
	C71.271515,168.140091 71.553223,168.303131 71.828217,168.729904 
	C71.602158,168.797699 71.403732,168.582443 71.108025,168.162476 
z"/>
<path fill="#50A67B" opacity="1.000000" stroke="none" 
	d="
M69.160316,166.144958 
	C69.319115,166.126770 69.612602,166.303406 69.939079,166.740692 
	C69.721222,166.806595 69.495537,166.586075 69.160316,166.144958 
z"/>
<path fill="#50A67B" opacity="1.000000" stroke="none" 
	d="
M69.126183,149.265594 
	C69.121239,149.420364 68.841400,149.787064 68.286987,150.363983 
	C68.292046,150.208633 68.571663,149.843094 69.126183,149.265594 
z"/>
</svg>