<svg version="1.1" id="Layer_1" xmlns="http://www.w3.org/2000/svg" xmlns:xlink="http://www.w3.org/1999/xlink" x="0px" y="0px"
	 width="100%" viewBox="0 0 300 300" enable-background="new 0 0 300 300" xml:space="preserve">
<path fill="#ffffff" opacity="1.000000" stroke="none" 
	d="
M195.000000,301.000000 
	C130.000015,301.000000 65.500023,301.000000 1.000026,301.000000 
	C1.000017,201.000031 1.000017,101.000061 1.000009,1.000066 
	C100.999947,1.000044 200.999893,1.000044 300.999878,1.000022 
	C300.999939,100.999939 300.999939,200.999878 300.999969,300.999908 
	C265.833344,301.000000 230.666672,301.000000 195.000000,301.000000 
M102.986557,252.488861 
	C114.161751,266.526031 132.089111,266.959869 144.671036,253.138000 
	C155.233871,241.534225 166.689926,230.741760 177.785385,219.624908 
	C205.660934,191.695572 233.576736,163.806381 261.428101,135.852982 
	C267.861542,129.395950 270.087738,121.504189 268.597717,112.554039 
	C266.250946,98.457458 263.683350,84.394478 261.565247,70.263908 
	C259.591553,57.096378 253.687881,47.474152 239.856232,44.572456 
	C234.342300,43.415707 228.711197,42.825554 223.144150,41.912212 
	C213.685562,40.360432 204.161209,39.100994 194.802368,37.080124 
	C185.111496,34.987560 176.801910,36.695641 169.714630,43.775841 
	C130.138168,83.312744 90.590736,122.878860 50.941170,162.342361 
	C39.689392,173.541336 38.746574,189.051529 50.919327,200.842957 
	C68.310898,217.689728 85.269447,234.983536 102.986557,252.488861 
z"/>
<path fill="#DB514D" opacity="1.000000" stroke="none" 
	d="
M102.699738,252.287659 
	C85.269447,234.983536 68.310898,217.689728 50.919327,200.842957 
	C38.746574,189.051529 39.689392,173.541336 50.941170,162.342361 
	C90.590736,122.878860 130.138168,83.312744 169.714630,43.775841 
	C176.801910,36.695641 185.111496,34.987560 194.802368,37.080124 
	C204.161209,39.100994 213.685562,40.360432 223.144150,41.912212 
	C228.711197,42.825554 234.342300,43.415707 239.856232,44.572456 
	C253.687881,47.474152 259.591553,57.096378 261.565247,70.263908 
	C263.683350,84.394478 266.250946,98.457458 268.597717,112.554039 
	C270.087738,121.504189 267.861542,129.395950 261.428101,135.852982 
	C233.576736,163.806381 205.660934,191.695572 177.785385,219.624908 
	C166.689926,230.741760 155.233871,241.534225 144.671036,253.138000 
	C132.089111,266.959869 114.161751,266.526031 102.699738,252.287659 
M190.917816,93.119926 
	C180.143723,99.455246 177.811279,109.609154 185.013672,118.822853 
	C189.982742,125.179581 199.869965,126.272591 207.007324,121.254211 
	C213.359100,116.788185 215.418243,106.644806 211.416641,100.140625 
	C206.715607,92.499611 199.839554,90.956909 190.917816,93.119926 
z"/>
<path fill="#0A0302" opacity="1.000000" stroke="none" 
	d="
M191.289108,92.966934 
	C199.839554,90.956909 206.715607,92.499611 211.416641,100.140625 
	C215.418243,106.644806 213.359100,116.788185 207.007324,121.254211 
	C199.869965,126.272591 189.982742,125.179581 185.013672,118.822853 
	C177.811279,109.609154 180.143723,99.455246 191.289108,92.966934 
z"/>
</svg>