<svg version="1.1" id="Layer_1" xmlns="http://www.w3.org/2000/svg" xmlns:xlink="http://www.w3.org/1999/xlink" x="0px" y="0px"
	 width="100%" viewBox="0 0 300 300" enable-background="new 0 0 300 300" xml:space="preserve">
<path fill="#ffffff" opacity="1.000000" stroke="none" 
	d="
M162.000000,301.000000 
	C108.000008,301.000000 54.500019,301.000000 1.000021,301.000000 
	C1.000014,201.000031 1.000014,101.000053 1.000007,1.000062 
	C100.999962,1.000041 200.999924,1.000041 300.999908,1.000021 
	C300.999939,100.999939 300.999939,200.999878 300.999969,300.999908 
	C254.833328,301.000000 208.666672,301.000000 162.000000,301.000000 
M224.424805,253.156281 
	C225.257538,253.155975 226.090286,253.160507 226.922989,253.154648 
	C237.885391,253.077621 244.198761,248.169983 245.364182,237.246124 
	C246.330383,228.189514 245.926712,218.985809 246.106613,209.846817 
	C246.167145,206.772079 244.408203,205.968079 241.601349,205.996445 
	C232.607132,206.087311 223.607956,206.167175 214.616684,205.973495 
	C196.000397,205.572540 181.628326,190.109756 182.438339,171.554291 
	C183.178909,154.589691 195.495575,141.551514 212.549576,140.449722 
	C222.007080,139.838730 231.531082,140.157928 241.023590,140.238098 
	C244.638901,140.268646 246.222351,138.781769 246.187912,135.218826 
	C246.110641,127.223869 246.237946,119.225334 246.056808,111.233353 
	C245.750275,97.707230 235.740280,91.929268 225.499725,91.972931 
	C170.362976,92.208008 115.224701,92.074829 60.086971,92.102852 
	C48.052578,92.108963 40.736103,99.323708 40.725269,111.255653 
	C40.688068,152.234116 40.686287,193.212677 40.738712,234.191101 
	C40.754311,246.380981 47.731735,253.147614 60.032368,253.149292 
	C114.503799,253.156738 168.975220,253.153931 224.424805,253.156281 
M242.499313,192.955078 
	C247.661453,192.938782 252.827332,193.039368 257.984680,192.873489 
	C263.200256,192.705734 265.773315,189.970490 265.818146,184.704208 
	C265.881836,177.211121 265.862244,169.716904 265.820892,162.223480 
	C265.783508,155.453857 264.130493,153.312439 257.424713,153.222961 
	C243.111328,153.031921 228.790756,153.201782 214.476364,153.428055 
	C211.896271,153.468842 209.092957,154.005310 206.802170,155.139771 
	C198.002869,159.497467 193.878891,168.325195 196.009842,177.401886 
	C198.117203,186.378082 205.877426,192.687622 215.522614,192.897583 
	C224.177933,193.085999 232.840347,192.948181 242.499313,192.955078 
M83.845398,52.528809 
	C80.723289,53.645950 77.656418,54.963593 74.468475,55.841709 
	C65.768875,58.238003 65.336884,62.874340 67.533890,71.351883 
	C67.776772,72.289055 68.625565,73.101891 68.749542,74.031586 
	C69.314873,78.270851 71.888992,79.140144 75.760010,79.102570 
	C91.740479,78.947426 107.723328,79.038704 123.705307,79.039383 
	C126.494499,79.039497 129.283691,79.039406 132.747940,79.039406 
	C132.747940,73.569611 132.736526,68.625320 132.750122,63.681099 
	C132.788132,49.844162 141.475494,40.943481 155.133240,40.514069 
	C157.093353,40.452442 159.026016,39.518169 160.971390,38.987743 
	C160.321594,36.832794 160.073990,34.432915 158.940903,32.572269 
	C156.326660,28.279449 152.414230,27.270147 147.778717,29.030359 
	C143.316376,30.724825 138.806656,32.294140 134.326263,33.941589 
	C117.743065,40.039268 101.163376,46.146507 83.845398,52.528809 
M178.500000,79.035225 
	C193.071686,79.035225 207.643356,79.035225 222.732773,79.035225 
	C222.732773,73.507561 222.766403,68.719086 222.724487,63.931274 
	C222.668915,57.580189 219.420273,53.635288 213.201584,53.567444 
	C193.902618,53.356892 174.599564,53.419796 155.299011,53.532413 
	C150.717499,53.559143 146.743149,55.876984 146.173477,60.483967 
	C145.434097,66.463417 145.992920,72.603394 145.992920,79.035225 
	C156.916840,79.035225 167.208420,79.035225 178.500000,79.035225 
z"/>
<path fill="#7C5AF4" opacity="1.000000" stroke="none" 
	d="
M223.935730,253.155579 
	C168.975220,253.153931 114.503799,253.156738 60.032368,253.149292 
	C47.731735,253.147614 40.754311,246.380981 40.738712,234.191101 
	C40.686287,193.212677 40.688068,152.234116 40.725269,111.255653 
	C40.736103,99.323708 48.052578,92.108963 60.086971,92.102852 
	C115.224701,92.074829 170.362976,92.208008 225.499725,91.972931 
	C235.740280,91.929268 245.750275,97.707230 246.056808,111.233353 
	C246.237946,119.225334 246.110641,127.223869 246.187912,135.218826 
	C246.222351,138.781769 244.638901,140.268646 241.023590,140.238098 
	C231.531082,140.157928 222.007080,139.838730 212.549576,140.449722 
	C195.495575,141.551514 183.178909,154.589691 182.438339,171.554291 
	C181.628326,190.109756 196.000397,205.572540 214.616684,205.973495 
	C223.607956,206.167175 232.607132,206.087311 241.601349,205.996445 
	C244.408203,205.968079 246.167145,206.772079 246.106613,209.846817 
	C245.926712,218.985809 246.330383,228.189514 245.364182,237.246124 
	C244.198761,248.169983 237.885391,253.077621 226.922989,253.154648 
	C226.090286,253.160507 225.257538,253.155975 223.935730,253.155579 
z"/>
<path fill="#7857EB" opacity="1.000000" stroke="none" 
	d="
M241.999481,192.954666 
	C232.840347,192.948181 224.177933,193.085999 215.522614,192.897583 
	C205.877426,192.687622 198.117203,186.378082 196.009842,177.401886 
	C193.878891,168.325195 198.002869,159.497467 206.802170,155.139771 
	C209.092957,154.005310 211.896271,153.468842 214.476364,153.428055 
	C228.790756,153.201782 243.111328,153.031921 257.424713,153.222961 
	C264.130493,153.312439 265.783508,155.453857 265.820892,162.223480 
	C265.862244,169.716904 265.881836,177.211121 265.818146,184.704208 
	C265.773315,189.970490 263.200256,192.705734 257.984680,192.873489 
	C252.827332,193.039368 247.661453,192.938782 241.999481,192.954666 
M220.477371,176.893372 
	C220.835938,175.461670 221.852615,173.769440 221.411194,172.654434 
	C220.583237,170.562973 219.095993,167.429581 217.549072,167.222412 
	C215.053482,166.888199 211.509018,167.864609 209.893585,169.639725 
	C208.702072,170.949020 209.001389,174.984039 210.181412,176.801361 
	C212.745712,180.750473 216.485016,180.487869 220.477371,176.893372 
z"/>
<path fill="#7A58ED" opacity="1.000000" stroke="none" 
	d="
M84.213882,52.389481 
	C101.163376,46.146507 117.743065,40.039268 134.326263,33.941589 
	C138.806656,32.294140 143.316376,30.724825 147.778717,29.030359 
	C152.414230,27.270147 156.326660,28.279449 158.940903,32.572269 
	C160.073990,34.432915 160.321594,36.832794 160.971390,38.987743 
	C159.026016,39.518169 157.093353,40.452442 155.133240,40.514069 
	C141.475494,40.943481 132.788132,49.844162 132.750122,63.681099 
	C132.736526,68.625320 132.747940,73.569611 132.747940,79.039406 
	C129.283691,79.039406 126.494499,79.039497 123.705307,79.039383 
	C107.723328,79.038704 91.740479,78.947426 75.760010,79.102570 
	C71.888992,79.140144 69.314873,78.270851 68.749542,74.031586 
	C68.625565,73.101891 67.776772,72.289055 67.533890,71.351883 
	C65.336884,62.874340 65.768875,58.238003 74.468475,55.841709 
	C77.656418,54.963593 80.723289,53.645950 84.213882,52.389481 
z"/>
<path fill="#7A58EE" opacity="1.000000" stroke="none" 
	d="
M178.000000,79.035225 
	C167.208420,79.035225 156.916840,79.035225 145.992920,79.035225 
	C145.992920,72.603394 145.434097,66.463417 146.173477,60.483967 
	C146.743149,55.876984 150.717499,53.559143 155.299011,53.532413 
	C174.599564,53.419796 193.902618,53.356892 213.201584,53.567444 
	C219.420273,53.635288 222.668915,57.580189 222.724487,63.931274 
	C222.766403,68.719086 222.732773,73.507561 222.732773,79.035225 
	C207.643356,79.035225 193.071686,79.035225 178.000000,79.035225 
z"/>
<path fill="#0D081F" opacity="1.000000" stroke="none" 
	d="
M220.228500,177.166779 
	C216.485016,180.487869 212.745712,180.750473 210.181412,176.801361 
	C209.001389,174.984039 208.702072,170.949020 209.893585,169.639725 
	C211.509018,167.864609 215.053482,166.888199 217.549072,167.222412 
	C219.095993,167.429581 220.583237,170.562973 221.411194,172.654434 
	C221.852615,173.769440 220.835938,175.461670 220.228500,177.166779 
z"/>
</svg>